<?xml version="1.0" encoding="UTF-8"?>
<svg width="50px" height="50px" viewBox="0 0 50 50" version="1.1" xmlns="http://www.w3.org/2000/svg" xmlns:xlink="http://www.w3.org/1999/xlink">
    <!-- Generator: Sketch 52.1 (67048) - http://www.bohemiancoding.com/sketch -->
    <title>形状 3</title>
    <desc>Created with Sketch.</desc>
    <defs>
        <linearGradient x1="0%" y1="38.308067%" x2="100%" y2="100%" id="linearGradient-1">
            <stop stop-color="#FFA4A4" offset="0%"></stop>
            <stop stop-color="#FF0400" offset="100%"></stop>
        </linearGradient>
    </defs>
    <g id="设计稿" stroke="none" stroke-width="1" fill="none" fill-rule="evenodd">
        <g id="智能预警-" transform="translate(-777.000000, -455.000000)" fill="url(#linearGradient-1)" fill-rule="nonzero">
            <g id="分组-35-copy" transform="translate(700.000000, 418.000000)">
                <g id="分组-34">
                    <g id="矩形">
                        <g id="布控警报" transform="translate(3.000000, 31.000000)">
                            <g id="形状-3" transform="translate(74.000000, 6.000000)">
                                <path d="M40.1845703,40.3846191 C40.3172852,39.5769043 40.3846191,38.7480957 40.3846191,37.9038574 L40.3846191,25 C40.3846192,19.5036049 37.4523274,14.4247264 32.6923096,11.6765288 C27.9322919,8.92833124 22.0677081,8.92833124 17.3076904,11.6765288 C12.5476726,14.4247264 9.61538078,19.5036049 9.61538086,25 L9.61538086,37.9038086 C9.61538086,38.7480469 9.68271484,39.5769043 9.81538086,40.3846191 L40.1846191,40.3846191 L40.1845703,40.3846191 Z M1.9230957,42.3077148 L48.0769043,42.3077148 L48.0769043,50 L1.9230957,50 L1.9230957,42.3077148 Z M23.0769043,0 L26.9230957,0 L26.9230957,5.76923828 L23.0769043,5.76923828 L23.0769043,0 Z M41.3172852,5.96152344 L44.0384766,8.68461914 L39.9615234,12.7634766 L37.2403809,10.0442383 L41.3172852,5.96152344 Z M50,23.0769043 L50,26.9230957 L44.2307617,26.9230957 L44.2307617,23.0769043 L50,23.0769043 Z M0,26.9230957 L0,23.0769043 L5.76923828,23.0769043 L5.76923828,26.9230957 L0,26.9230957 Z M5.96152344,8.68271484 L8.68461914,5.96152344 L12.7634766,10.0384766 L10.0442383,12.7596191 L5.96152344,8.68271484 Z" id="形状"></path>
                            </g>
                        </g>
                    </g>
                </g>
            </g>
        </g>
    </g>
</svg>