<?xml version="1.0" encoding="UTF-8"?>
<svg width="50px" height="50px" viewBox="0 0 50 50" version="1.1" xmlns="http://www.w3.org/2000/svg" xmlns:xlink="http://www.w3.org/1999/xlink">
    <!-- Generator: Sketch 52.1 (67048) - http://www.bohemiancoding.com/sketch -->
    <title>形状 2</title>
    <desc>Created with Sketch.</desc>
    <defs>
        <linearGradient x1="0%" y1="50%" x2="100%" y2="85.4285843%" id="linearGradient-1">
            <stop stop-color="#488FE3" offset="0%"></stop>
            <stop stop-color="#404CAC" offset="100%"></stop>
        </linearGradient>
    </defs>
    <g id="设计稿" stroke="none" stroke-width="1" fill="none" fill-rule="evenodd">
        <g id="智能预警-" transform="translate(-307.000000, -458.000000)" fill="url(#linearGradient-1)" fill-rule="nonzero">
            <g id="分组-35" transform="translate(271.000000, 420.000000)">
                <g id="分组-34">
                    <g id="矩形">
                        <g id="形状-2" transform="translate(36.000000, 38.000000)">
                            <path d="M45.9375,25 C45.9375,22.1875 47.5,19.6875 50,18.75 C48.75,14.375 46.25,10.3125 43.125,7.1875 C40.9375,8.75 37.8125,9.0625 35.3125,7.8125 C32.8125,6.25 31.5625,3.75 31.875,0.9375 C29.6875,0.3125 27.1875,0 25,0 C22.5,0 20.3125,0.3125 18.125,0.9375 C18.4375,3.4375 17.1875,6.25 14.6875,7.8125 C12.1875,9.375 9.0625,9.0625 6.875,7.1875 C3.75,10.3125 1.25,14.375 0,18.75 C2.5,19.6875 4.0625,22.1875 4.0625,25 C4.0625,27.8125 2.5,30.3125 0,31.25 C1.25,35.625 3.75,39.6875 6.875,42.8125 C9.0625,41.25 12.1875,40.9375 14.6875,42.1875 C17.1875,43.75 18.4375,46.25 18.125,49.0625 C20.3125,49.6875 22.8125,50 25,50 C27.5,50 29.6875,49.6875 31.875,49.0625 C31.5625,46.5625 32.8125,43.75 35.3125,42.1875 C37.8125,40.625 40.9375,40.9375 43.125,42.8125 C46.25,39.6875 48.75,35.625 50,31.25 C47.5,30.3125 45.9375,27.8125 45.9375,25 Z M25,35.7142857 C19.012605,35.7142857 14.2857143,31.0470779 14.2857143,25.4464286 C14.2857143,19.8457792 19.012605,15.1785714 25,15.1785714 C30.987395,15.1785714 35.7142857,19.8457792 35.7142857,25.4464286 C35.7142857,31.0470779 30.987395,35.7142857 25,35.7142857 Z M25,31.25 C28.4517797,31.25 31.25,28.4517797 31.25,25 C31.25,21.5482203 28.4517797,18.75 25,18.75 C21.5482203,18.75 18.75,21.5482203 18.75,25 C18.75,28.4517797 21.5482203,31.25 25,31.25 Z" id="形状"></path>
                        </g>
                    </g>
                </g>
            </g>
        </g>
    </g>
</svg>