<?xml version="1.0" encoding="UTF-8"?>
<svg width="579px" height="440px" viewBox="0 0 579 440" version="1.1" xmlns="http://www.w3.org/2000/svg" xmlns:xlink="http://www.w3.org/1999/xlink">
    <!-- Generator: Sketch 52.1 (67048) - http://www.bohemiancoding.com/sketch -->
    <title>分组 10</title>
    <desc>Created with Sketch.</desc>
    <defs>
        <linearGradient x1="-2.30010238%" y1="5.21188882%" x2="57.9444461%" y2="93.2658776%" id="linearGradient-1">
            <stop stop-color="#4E2DAB" offset="0%"></stop>
            <stop stop-color="#6865C6" offset="31.9729469%"></stop>
            <stop stop-color="#43DDFF" offset="100%"></stop>
        </linearGradient>
        <linearGradient x1="0%" y1="3.08217027%" x2="52.9902849%" y2="46.3779701%" id="linearGradient-2">
            <stop stop-color="#BEF7FF" stop-opacity="0" offset="0%"></stop>
            <stop stop-color="#43DDFF" offset="100%"></stop>
        </linearGradient>
        <linearGradient x1="47.8267998%" y1="74.8084411%" x2="47.8267998%" y2="-20.7366184%" id="linearGradient-3">
            <stop stop-color="#9DFFD8" offset="0%"></stop>
            <stop stop-color="#051135" offset="100%"></stop>
        </linearGradient>
        <linearGradient x1="68.4463117%" y1="0%" x2="4.84366558%" y2="113.373315%" id="linearGradient-4">
            <stop stop-color="#1752FF" offset="0%"></stop>
            <stop stop-color="#00FFF2" stop-opacity="0.9" offset="100%"></stop>
        </linearGradient>
        <linearGradient x1="97.9635596%" y1="14.6037797%" x2="0%" y2="89.9915001%" id="linearGradient-5">
            <stop stop-color="#0C2FDE" offset="0%"></stop>
            <stop stop-color="#1B5FE8" offset="100%"></stop>
        </linearGradient>
        <linearGradient x1="84.9943824%" y1="21.1095551%" x2="-2.07874242%" y2="123.973316%" id="linearGradient-6">
            <stop stop-color="#5883FF" offset="0%"></stop>
            <stop stop-color="#00AAFF" stop-opacity="0.9" offset="100%"></stop>
        </linearGradient>
        <path d="M247.141722,285.685072 C241.107285,285.685072 235.433113,284.335378 231.109934,281.90593 L7.83576159,153.145194 C3.33245033,150.535787 0.810596026,147.026585 0.810596026,143.247444 C0.810596026,139.468303 3.24238411,135.9591 7.74569536,133.349693 L229.488742,4.58895706 C233.721854,2.1595092 239.396026,0.809815951 245.430464,0.809815951 C251.464901,0.809815951 257.139073,2.1595092 261.462252,4.58895706 L484.736424,133.349693 C489.239735,135.9591 491.761589,139.468303 491.761589,143.247444 C491.761589,147.026585 489.329801,150.535787 484.82649,153.145194 L263.083444,281.90593 C258.850331,284.335378 253.176159,285.685072 247.141722,285.685072 Z M245.610596,2.96932515 C240.02649,2.96932515 234.712583,4.22903885 230.749669,6.56850716 L9.00662252,135.329243 C5.31390728,137.488753 3.24238411,140.278119 3.24238411,143.247444 C3.24238411,146.216769 5.31390728,149.006135 9.09668874,151.255624 L232.370861,280.01636 C236.333775,282.355828 241.647682,283.615542 247.231788,283.615542 C252.815894,283.615542 258.129801,282.355828 262.092715,280.01636 L483.745695,151.165644 C487.438411,149.006135 489.509934,146.216769 489.509934,143.247444 C489.509934,140.278119 487.438411,137.488753 483.655629,135.239264 L260.381457,6.47852761 C256.418543,4.22903885 251.194702,2.96932515 245.610596,2.96932515 Z" id="path-7"></path>
        <filter x="-1.4%" y="-1.8%" width="102.9%" height="104.9%" filterUnits="objectBoundingBox" id="filter-8">
            <feOffset dx="0" dy="2" in="SourceAlpha" result="shadowOffsetOuter1"></feOffset>
            <feGaussianBlur stdDeviation="2" in="shadowOffsetOuter1" result="shadowBlurOuter1"></feGaussianBlur>
            <feColorMatrix values="0 0 0 0 0.0274509804   0 0 0 0 0.0784313725   0 0 0 0 0.219607843  0 0 0 1 0" type="matrix" in="shadowBlurOuter1"></feColorMatrix>
        </filter>
        <linearGradient x1="0%" y1="85.4285843%" x2="100%" y2="0%" id="linearGradient-9">
            <stop stop-color="#9DFFD7" offset="0%"></stop>
            <stop stop-color="#EE00FF" offset="100%"></stop>
        </linearGradient>
        <linearGradient x1="0%" y1="85.4285843%" x2="100%" y2="0%" id="linearGradient-10">
            <stop stop-color="#9DFFD7" offset="0%"></stop>
            <stop stop-color="#46777B" offset="100%"></stop>
        </linearGradient>
        <linearGradient x1="38.2771013%" y1="27.9929239%" x2="59.9311714%" y2="68.6514909%" id="linearGradient-11">
            <stop stop-color="#00C6FB" offset="0.537634%"></stop>
            <stop stop-color="#06B3F5" stop-opacity="0.9171" offset="8.782802%"></stop>
            <stop stop-color="#1B70DF" stop-opacity="0.5926" offset="41.06%"></stop>
            <stop stop-color="#2B3ECF" stop-opacity="0.3207" offset="68.1%"></stop>
            <stop stop-color="#341FC6" stop-opacity="0.1152" offset="88.54%"></stop>
            <stop stop-color="#3814C2" stop-opacity="0" offset="100%"></stop>
        </linearGradient>
        <linearGradient x1="69.5695489%" y1="19.8905364%" x2="33.4640351%" y2="74.1109027%" id="linearGradient-12">
            <stop stop-color="#00C6FB" offset="0.537634%"></stop>
            <stop stop-color="#06B3F5" stop-opacity="0.9171" offset="8.782802%"></stop>
            <stop stop-color="#1B70DF" stop-opacity="0.5926" offset="41.06%"></stop>
            <stop stop-color="#2B3ECF" stop-opacity="0.3207" offset="68.1%"></stop>
            <stop stop-color="#341FC6" stop-opacity="0.1152" offset="88.54%"></stop>
            <stop stop-color="#3814C2" stop-opacity="0" offset="100%"></stop>
        </linearGradient>
        <linearGradient x1="-0.157515317%" y1="50.0138133%" x2="100.137164%" y2="50.0138133%" id="linearGradient-13">
            <stop stop-color="#55FFB5" offset="0.537634%"></stop>
            <stop stop-color="#6DFFCB" offset="58.8%"></stop>
            <stop stop-color="#78FFD6" offset="100%"></stop>
        </linearGradient>
        <linearGradient x1="-59.8580276%" y1="31.3169056%" x2="123.259763%" y2="73.7787933%" id="linearGradient-14">
            <stop stop-color="#240EA8" offset="0%"></stop>
            <stop stop-color="#1811B7" stop-opacity="0.5227" offset="47.73%"></stop>
            <stop stop-color="#0F13C2" stop-opacity="0" offset="100%"></stop>
        </linearGradient>
        <linearGradient x1="78.2959832%" y1="126.91631%" x2="28.943765%" y2="-1.36144975%" id="linearGradient-15">
            <stop stop-color="#00C6FB" offset="0.537634%"></stop>
            <stop stop-color="#00B6F8" offset="12.37%"></stop>
            <stop stop-color="#0085F1" offset="52.42%"></stop>
            <stop stop-color="#0066EC" offset="82.9%"></stop>
            <stop stop-color="#005BEA" offset="100%"></stop>
        </linearGradient>
        <linearGradient x1="-40.5795318%" y1="34.5051296%" x2="131.177993%" y2="63.4109403%" id="linearGradient-16">
            <stop stop-color="#005BEA" offset="0%"></stop>
            <stop stop-color="#0066EC" offset="17.1%"></stop>
            <stop stop-color="#0085F1" offset="47.58%"></stop>
            <stop stop-color="#00B6F8" offset="87.63%"></stop>
            <stop stop-color="#00C6FB" offset="99.46%"></stop>
        </linearGradient>
        <linearGradient x1="-8.53322669%" y1="51.7998926%" x2="138.024272%" y2="47.3772554%" id="linearGradient-17">
            <stop stop-color="#009FFC" offset="0.6778585%"></stop>
            <stop stop-color="#1595F4" offset="55.86%"></stop>
            <stop stop-color="#2090F0" offset="100%"></stop>
        </linearGradient>
        <linearGradient x1="78.2959832%" y1="126.886787%" x2="28.943765%" y2="-1.39097199%" id="linearGradient-18">
            <stop stop-color="#00C6FB" offset="0.537634%"></stop>
            <stop stop-color="#00B6F8" offset="12.37%"></stop>
            <stop stop-color="#0085F1" offset="52.42%"></stop>
            <stop stop-color="#0066EC" offset="82.9%"></stop>
            <stop stop-color="#005BEA" offset="100%"></stop>
        </linearGradient>
        <linearGradient x1="-40.5795318%" y1="34.543005%" x2="131.177993%" y2="63.4488157%" id="linearGradient-19">
            <stop stop-color="#005BEA" offset="0%"></stop>
            <stop stop-color="#0066EC" offset="17.1%"></stop>
            <stop stop-color="#0085F1" offset="47.58%"></stop>
            <stop stop-color="#00B6F8" offset="87.63%"></stop>
            <stop stop-color="#00C6FB" offset="99.46%"></stop>
        </linearGradient>
        <linearGradient x1="-8.5679995%" y1="51.7748168%" x2="138.030921%" y2="47.3521795%" id="linearGradient-20">
            <stop stop-color="#009FFC" offset="0.6778585%"></stop>
            <stop stop-color="#1595F4" offset="55.86%"></stop>
            <stop stop-color="#2090F0" offset="100%"></stop>
        </linearGradient>
        <linearGradient x1="-8.55605259%" y1="51.8176083%" x2="138.031169%" y2="47.3947574%" id="linearGradient-21">
            <stop stop-color="#55FFB5" offset="0.537634%"></stop>
            <stop stop-color="#6DFFCB" offset="58.8%"></stop>
            <stop stop-color="#78FFD6" offset="100%"></stop>
        </linearGradient>
        <linearGradient x1="-1.34572857%" y1="-1.70029571%" x2="86.1212046%" y2="100.972418%" id="linearGradient-22">
            <stop stop-color="#005BEA" offset="0%"></stop>
            <stop stop-color="#00C6FB" offset="99.46%"></stop>
        </linearGradient>
        <linearGradient x1="-105.375%" y1="20.3481481%" x2="176.639516%" y2="99.1148148%" id="linearGradient-23">
            <stop stop-color="#009FFC" offset="0.6778585%"></stop>
            <stop stop-color="#1595F4" offset="55.86%"></stop>
            <stop stop-color="#2090F0" offset="100%"></stop>
        </linearGradient>
        <linearGradient x1="-1.34572857%" y1="-1.64727345%" x2="86.1212046%" y2="101.025955%" id="linearGradient-24">
            <stop stop-color="#005BEA" offset="0%"></stop>
            <stop stop-color="#00C6FB" offset="99.46%"></stop>
        </linearGradient>
        <linearGradient x1="-105.375%" y1="20.4123457%" x2="176.639516%" y2="99.1790123%" id="linearGradient-25">
            <stop stop-color="#009FFC" offset="0.6778585%"></stop>
            <stop stop-color="#1595F4" offset="55.86%"></stop>
            <stop stop-color="#2090F0" offset="100%"></stop>
        </linearGradient>
        <linearGradient x1="101.68201%" y1="-1.46246771%" x2="-9.31317618%" y2="128.82918%" id="linearGradient-26">
            <stop stop-color="#005BEA" offset="0%"></stop>
            <stop stop-color="#006FED" offset="22.83%"></stop>
            <stop stop-color="#00A2F5" offset="69.2%"></stop>
            <stop stop-color="#00C6FB" offset="99.46%"></stop>
        </linearGradient>
        <linearGradient x1="206.722581%" y1="20.6339506%" x2="-75.2895161%" y2="99.4006173%" id="linearGradient-27">
            <stop stop-color="#009FFC" offset="0.6778585%"></stop>
            <stop stop-color="#1595F4" offset="55.86%"></stop>
            <stop stop-color="#2090F0" offset="100%"></stop>
        </linearGradient>
        <linearGradient x1="101.68201%" y1="-1.40893068%" x2="-13.5576752%" y2="133.865265%" id="linearGradient-28">
            <stop stop-color="#005BEA" offset="0%"></stop>
            <stop stop-color="#00C6FB" offset="99.46%"></stop>
        </linearGradient>
        <linearGradient x1="206.722581%" y1="20.6981481%" x2="-75.2895161%" y2="99.4641975%" id="linearGradient-29">
            <stop stop-color="#009FFC" offset="0.6778585%"></stop>
            <stop stop-color="#1595F4" offset="55.86%"></stop>
            <stop stop-color="#2090F0" offset="100%"></stop>
        </linearGradient>
        <linearGradient x1="26.2138211%" y1="49.266%" x2="126.064499%" y2="42.839%" id="linearGradient-30">
            <stop stop-color="#36BBC0" offset="0.537634%"></stop>
            <stop stop-color="#78FFD6" offset="100%"></stop>
        </linearGradient>
        <linearGradient x1="41.3836957%" y1="6.24042934%" x2="94.0228261%" y2="109.414669%" id="linearGradient-31">
            <stop stop-color="#55FFB5" offset="0.537634%"></stop>
            <stop stop-color="#6DFFCB" offset="58.8%"></stop>
            <stop stop-color="#78FFD6" offset="100%"></stop>
        </linearGradient>
        <linearGradient x1="26.2138211%" y1="49.166%" x2="126.064499%" y2="42.74%" id="linearGradient-32">
            <stop stop-color="#36BBC0" offset="0.537634%"></stop>
            <stop stop-color="#78FFD6" offset="100%"></stop>
        </linearGradient>
        <linearGradient x1="41.3836957%" y1="6.16887299%" x2="94.0228261%" y2="109.343113%" id="linearGradient-33">
            <stop stop-color="#55FFB5" offset="0.537634%"></stop>
            <stop stop-color="#6DFFCB" offset="58.8%"></stop>
            <stop stop-color="#78FFD6" offset="100%"></stop>
        </linearGradient>
        <linearGradient x1="-1.68562598%" y1="-1.78163082%" x2="85.7813072%" y2="100.891083%" id="linearGradient-34">
            <stop stop-color="#005BEA" offset="0%"></stop>
            <stop stop-color="#00C6FB" offset="99.46%"></stop>
        </linearGradient>
        <linearGradient x1="-106.739516%" y1="20.2506173%" x2="175.275%" y2="99.017284%" id="linearGradient-35">
            <stop stop-color="#009FFC" offset="0.6778585%"></stop>
            <stop stop-color="#1595F4" offset="55.86%"></stop>
            <stop stop-color="#2090F0" offset="100%"></stop>
        </linearGradient>
        <linearGradient x1="-1.68562598%" y1="-1.72809379%" x2="85.7813072%" y2="100.94462%" id="linearGradient-36">
            <stop stop-color="#005BEA" offset="0%"></stop>
            <stop stop-color="#00C6FB" offset="99.46%"></stop>
        </linearGradient>
        <linearGradient x1="-106.739516%" y1="20.3148148%" x2="175.275%" y2="99.0814815%" id="linearGradient-37">
            <stop stop-color="#009FFC" offset="0.6778585%"></stop>
            <stop stop-color="#1595F4" offset="55.86%"></stop>
            <stop stop-color="#2090F0" offset="100%"></stop>
        </linearGradient>
        <linearGradient x1="101.354166%" y1="-1.54328805%" x2="-5.59961619%" y2="124.004155%" id="linearGradient-38">
            <stop stop-color="#005BEA" offset="0%"></stop>
            <stop stop-color="#0070ED" offset="23.53%"></stop>
            <stop stop-color="#00A5F6" offset="71.74%"></stop>
            <stop stop-color="#00C6FB" offset="99.46%"></stop>
        </linearGradient>
        <linearGradient x1="205.406452%" y1="20.5364198%" x2="-76.6080645%" y2="99.3030864%" id="linearGradient-39">
            <stop stop-color="#009FFC" offset="0.6778585%"></stop>
            <stop stop-color="#1595F4" offset="55.86%"></stop>
            <stop stop-color="#2090F0" offset="100%"></stop>
        </linearGradient>
        <linearGradient x1="101.354166%" y1="-1.49026579%" x2="-1.36958089%" y2="119.092646%" id="linearGradient-40">
            <stop stop-color="#005BEA" offset="0%"></stop>
            <stop stop-color="#0067EC" offset="17.3%"></stop>
            <stop stop-color="#0086F1" offset="48.4%"></stop>
            <stop stop-color="#00B9F9" offset="89.48%"></stop>
            <stop stop-color="#00C6FB" offset="99.46%"></stop>
        </linearGradient>
        <linearGradient x1="205.406452%" y1="20.6006173%" x2="-76.6080645%" y2="99.367284%" id="linearGradient-41">
            <stop stop-color="#009FFC" offset="0.6778585%"></stop>
            <stop stop-color="#1595F4" offset="55.86%"></stop>
            <stop stop-color="#2090F0" offset="100%"></stop>
        </linearGradient>
        <linearGradient x1="26.3439024%" y1="49.443%" x2="126.19458%" y2="43.017%" id="linearGradient-42">
            <stop stop-color="#36BBC0" offset="0.537634%"></stop>
            <stop stop-color="#78FFD6" offset="100%"></stop>
        </linearGradient>
        <linearGradient x1="41.5144022%" y1="5.65152057%" x2="94.1532609%" y2="108.82576%" id="linearGradient-43">
            <stop stop-color="#55FFB5" offset="0.537634%"></stop>
            <stop stop-color="#6DFFCB" offset="58.8%"></stop>
            <stop stop-color="#78FFD6" offset="100%"></stop>
        </linearGradient>
        <linearGradient x1="26.3439024%" y1="49.343%" x2="126.19458%" y2="42.917%" id="linearGradient-44">
            <stop stop-color="#36BBC0" offset="0.537634%"></stop>
            <stop stop-color="#78FFD6" offset="100%"></stop>
        </linearGradient>
        <linearGradient x1="41.5144022%" y1="6.29552773%" x2="94.1532609%" y2="109.469767%" id="linearGradient-45">
            <stop stop-color="#55FFB5" offset="0.537634%"></stop>
            <stop stop-color="#6DFFCB" offset="58.8%"></stop>
            <stop stop-color="#78FFD6" offset="100%"></stop>
        </linearGradient>
        <linearGradient x1="12.3443968%" y1="-21.2230067%" x2="118.748992%" y2="177.932505%" id="linearGradient-46">
            <stop stop-color="#55FFB5" offset="0.537634%"></stop>
            <stop stop-color="#6DFFCB" offset="58.8%"></stop>
            <stop stop-color="#78FFD6" offset="100%"></stop>
        </linearGradient>
        <linearGradient x1="12.3456317%" y1="-21.1093537%" x2="118.74954%" y2="178.04585%" id="linearGradient-47">
            <stop stop-color="#55FFB5" offset="0.537634%"></stop>
            <stop stop-color="#6DFFCB" offset="58.8%"></stop>
            <stop stop-color="#78FFD6" offset="100%"></stop>
        </linearGradient>
        <linearGradient x1="12.2729397%" y1="-21.1146897%" x2="118.676848%" y2="178.040514%" id="linearGradient-48">
            <stop stop-color="#55FFB5" offset="0.537634%"></stop>
            <stop stop-color="#6DFFCB" offset="58.8%"></stop>
            <stop stop-color="#78FFD6" offset="100%"></stop>
        </linearGradient>
        <linearGradient x1="12.2648048%" y1="-21.1354682%" x2="118.668713%" y2="178.019736%" id="linearGradient-49">
            <stop stop-color="#55FFB5" offset="0.537634%"></stop>
            <stop stop-color="#6DFFCB" offset="58.8%"></stop>
            <stop stop-color="#78FFD6" offset="100%"></stop>
        </linearGradient>
        <linearGradient x1="0.0738693467%" y1="50.1236196%" x2="99.9635678%" y2="50.1236196%" id="linearGradient-50">
            <stop stop-color="#55FFB5" offset="0.537634%"></stop>
            <stop stop-color="#6DFFCB" offset="58.8%"></stop>
            <stop stop-color="#78FFD6" offset="100%"></stop>
        </linearGradient>
        <linearGradient x1="0.0738693467%" y1="50.1159509%" x2="99.9635678%" y2="50.1159509%" id="linearGradient-51">
            <stop stop-color="#55FFB5" offset="0.537634%"></stop>
            <stop stop-color="#6DFFCB" offset="58.8%"></stop>
            <stop stop-color="#78FFD6" offset="100%"></stop>
        </linearGradient>
        <linearGradient x1="-269.214286%" y1="50.1412371%" x2="624.180519%" y2="50.1412371%" id="linearGradient-52">
            <stop stop-color="#005BEA" offset="0%"></stop>
            <stop stop-color="#0066EC" offset="17.1%"></stop>
            <stop stop-color="#0085F1" offset="47.58%"></stop>
            <stop stop-color="#00B6F8" offset="87.63%"></stop>
            <stop stop-color="#00C6FB" offset="99.46%"></stop>
        </linearGradient>
        <linearGradient x1="-269.214286%" y1="50.1154639%" x2="624.180519%" y2="50.1154639%" id="linearGradient-53">
            <stop stop-color="#005BEA" offset="0%"></stop>
            <stop stop-color="#0066EC" offset="17.1%"></stop>
            <stop stop-color="#0085F1" offset="47.58%"></stop>
            <stop stop-color="#00B6F8" offset="87.63%"></stop>
            <stop stop-color="#00C6FB" offset="99.46%"></stop>
        </linearGradient>
        <linearGradient x1="0.0625628141%" y1="50.0205521%" x2="99.9520101%" y2="50.0205521%" id="linearGradient-54">
            <stop stop-color="#55FFB5" offset="0.537634%"></stop>
            <stop stop-color="#6DFFCB" offset="58.8%"></stop>
            <stop stop-color="#78FFD6" offset="100%"></stop>
        </linearGradient>
        <linearGradient x1="0.0625628141%" y1="50.0128834%" x2="99.9520101%" y2="50.0128834%" id="linearGradient-55">
            <stop stop-color="#55FFB5" offset="0.537634%"></stop>
            <stop stop-color="#6DFFCB" offset="58.8%"></stop>
            <stop stop-color="#78FFD6" offset="100%"></stop>
        </linearGradient>
        <linearGradient x1="-269.272727%" y1="49.7948454%" x2="624.120779%" y2="49.7948454%" id="linearGradient-56">
            <stop stop-color="#005BEA" offset="0%"></stop>
            <stop stop-color="#0066EC" offset="17.1%"></stop>
            <stop stop-color="#0085F1" offset="47.58%"></stop>
            <stop stop-color="#00B6F8" offset="87.63%"></stop>
            <stop stop-color="#00C6FB" offset="99.46%"></stop>
        </linearGradient>
        <linearGradient x1="-269.272727%" y1="50.2875%" x2="624.120779%" y2="50.2875%" id="linearGradient-57">
            <stop stop-color="#005BEA" offset="0%"></stop>
            <stop stop-color="#0066EC" offset="17.1%"></stop>
            <stop stop-color="#0085F1" offset="47.58%"></stop>
            <stop stop-color="#00B6F8" offset="87.63%"></stop>
            <stop stop-color="#00C6FB" offset="99.46%"></stop>
        </linearGradient>
        <linearGradient x1="12.7043286%" y1="-21.2781287%" x2="119.108924%" y2="177.877383%" id="linearGradient-58">
            <stop stop-color="#55FFB5" offset="0.537634%"></stop>
            <stop stop-color="#6DFFCB" offset="58.8%"></stop>
            <stop stop-color="#78FFD6" offset="100%"></stop>
        </linearGradient>
        <linearGradient x1="12.696881%" y1="-20.6821541%" x2="119.101476%" y2="178.473358%" id="linearGradient-59">
            <stop stop-color="#55FFB5" offset="0.537634%"></stop>
            <stop stop-color="#6DFFCB" offset="58.8%"></stop>
            <stop stop-color="#78FFD6" offset="100%"></stop>
        </linearGradient>
        <linearGradient x1="-0.0405541562%" y1="50.042638%" x2="100.100756%" y2="50.042638%" id="linearGradient-60">
            <stop stop-color="#55FFB5" offset="0.537634%"></stop>
            <stop stop-color="#6DFFCB" offset="58.8%"></stop>
            <stop stop-color="#78FFD6" offset="100%"></stop>
        </linearGradient>
        <linearGradient x1="-0.0405541562%" y1="50.0346626%" x2="100.100756%" y2="50.0346626%" id="linearGradient-61">
            <stop stop-color="#55FFB5" offset="0.537634%"></stop>
            <stop stop-color="#6DFFCB" offset="58.8%"></stop>
            <stop stop-color="#78FFD6" offset="100%"></stop>
        </linearGradient>
        <linearGradient x1="-273.355263%" y1="49.8690722%" x2="631.793421%" y2="49.8690722%" id="linearGradient-62">
            <stop stop-color="#005BEA" offset="0%"></stop>
            <stop stop-color="#0066EC" offset="17.1%"></stop>
            <stop stop-color="#0085F1" offset="47.58%"></stop>
            <stop stop-color="#00B6F8" offset="87.63%"></stop>
            <stop stop-color="#00C6FB" offset="99.46%"></stop>
        </linearGradient>
        <linearGradient x1="-273.355263%" y1="49.843299%" x2="631.793421%" y2="49.843299%" id="linearGradient-63">
            <stop stop-color="#005BEA" offset="0%"></stop>
            <stop stop-color="#0066EC" offset="17.1%"></stop>
            <stop stop-color="#0085F1" offset="47.58%"></stop>
            <stop stop-color="#00B6F8" offset="87.63%"></stop>
            <stop stop-color="#00C6FB" offset="99.46%"></stop>
        </linearGradient>
        <linearGradient x1="-1.23966129%" y1="-1.45474602%" x2="86.2272719%" y2="101.217968%" id="linearGradient-64">
            <stop stop-color="#005BEA" offset="0%"></stop>
            <stop stop-color="#00C6FB" offset="99.46%"></stop>
        </linearGradient>
        <linearGradient x1="-104.949194%" y1="20.6425926%" x2="177.067742%" y2="99.4092593%" id="linearGradient-65">
            <stop stop-color="#009FFC" offset="0.6778585%"></stop>
            <stop stop-color="#1595F4" offset="55.86%"></stop>
            <stop stop-color="#2090F0" offset="100%"></stop>
        </linearGradient>
        <linearGradient x1="-1.23966129%" y1="-1.40172377%" x2="86.2272719%" y2="101.271505%" id="linearGradient-66">
            <stop stop-color="#005BEA" offset="0%"></stop>
            <stop stop-color="#00C6FB" offset="99.46%"></stop>
        </linearGradient>
        <linearGradient x1="-104.949194%" y1="20.7067901%" x2="177.067742%" y2="99.4734568%" id="linearGradient-67">
            <stop stop-color="#009FFC" offset="0.6778585%"></stop>
            <stop stop-color="#1595F4" offset="55.86%"></stop>
            <stop stop-color="#2090F0" offset="100%"></stop>
        </linearGradient>
        <linearGradient x1="101.197475%" y1="-1.73169724%" x2="-5.75690914%" y2="123.81626%" id="linearGradient-68">
            <stop stop-color="#005BEA" offset="0%"></stop>
            <stop stop-color="#0070ED" offset="23.53%"></stop>
            <stop stop-color="#00A5F6" offset="71.74%"></stop>
            <stop stop-color="#00C6FB" offset="99.46%"></stop>
        </linearGradient>
        <linearGradient x1="204.777419%" y1="20.3111111%" x2="-77.2370968%" y2="99.0771605%" id="linearGradient-69">
            <stop stop-color="#009FFC" offset="0.6778585%"></stop>
            <stop stop-color="#1595F4" offset="55.86%"></stop>
            <stop stop-color="#2090F0" offset="100%"></stop>
        </linearGradient>
        <linearGradient x1="101.197475%" y1="-1.6781602%" x2="-1.52687384%" y2="118.904237%" id="linearGradient-70">
            <stop stop-color="#005BEA" offset="0%"></stop>
            <stop stop-color="#0067EC" offset="17.3%"></stop>
            <stop stop-color="#0086F1" offset="48.4%"></stop>
            <stop stop-color="#00B9F9" offset="89.48%"></stop>
            <stop stop-color="#00C6FB" offset="99.46%"></stop>
        </linearGradient>
        <linearGradient x1="204.777419%" y1="20.3753086%" x2="-77.2370968%" y2="99.141358%" id="linearGradient-71">
            <stop stop-color="#009FFC" offset="0.6778585%"></stop>
            <stop stop-color="#1595F4" offset="55.86%"></stop>
            <stop stop-color="#2090F0" offset="100%"></stop>
        </linearGradient>
        <linearGradient x1="26.2734417%" y1="49.078%" x2="126.124119%" y2="42.651%" id="linearGradient-72">
            <stop stop-color="#36BBC0" offset="0.537634%"></stop>
            <stop stop-color="#78FFD6" offset="100%"></stop>
        </linearGradient>
        <linearGradient x1="41.4434783%" y1="6.10518784%" x2="94.0826087%" y2="109.280143%" id="linearGradient-73">
            <stop stop-color="#55FFB5" offset="0.537634%"></stop>
            <stop stop-color="#6DFFCB" offset="58.8%"></stop>
            <stop stop-color="#78FFD6" offset="100%"></stop>
        </linearGradient>
        <linearGradient x1="26.2734417%" y1="48.978%" x2="126.124119%" y2="42.552%" id="linearGradient-74">
            <stop stop-color="#36BBC0" offset="0.537634%"></stop>
            <stop stop-color="#78FFD6" offset="100%"></stop>
        </linearGradient>
        <linearGradient x1="41.4434783%" y1="6.03434705%" x2="94.0826087%" y2="109.208587%" id="linearGradient-75">
            <stop stop-color="#55FFB5" offset="0.537634%"></stop>
            <stop stop-color="#6DFFCB" offset="58.8%"></stop>
            <stop stop-color="#78FFD6" offset="100%"></stop>
        </linearGradient>
        <linearGradient x1="54.5625496%" y1="108.305987%" x2="34.4068996%" y2="-148.072595%" id="linearGradient-76">
            <stop stop-color="#52E5E7" offset="0.6778585%"></stop>
            <stop stop-color="#130CB7" offset="100%"></stop>
        </linearGradient>
        <linearGradient x1="96.0190195%" y1="101.001236%" x2="-60.0334368%" y2="-71.6632636%" id="linearGradient-77">
            <stop stop-color="#52E5E7" offset="0.6778585%"></stop>
            <stop stop-color="#130CB7" offset="100%"></stop>
        </linearGradient>
        <linearGradient x1="54.5708789%" y1="108.292745%" x2="34.4151587%" y2="-148.086053%" id="linearGradient-78">
            <stop stop-color="#52E5E7" offset="0.6778585%"></stop>
            <stop stop-color="#130CB7" offset="100%"></stop>
        </linearGradient>
        <linearGradient x1="8.23443279%" y1="127.054022%" x2="120.49607%" y2="-80.1056941%" id="linearGradient-79">
            <stop stop-color="#52E5E7" offset="0.6778585%"></stop>
            <stop stop-color="#130CB7" offset="100%"></stop>
        </linearGradient>
        <linearGradient x1="48.7424011%" y1="92.2990791%" x2="48.7424011%" y2="22.0944796%" id="linearGradient-80">
            <stop stop-color="#FFFFFF" offset="0%"></stop>
            <stop stop-color="#99EBFF" stop-opacity="0" offset="100%"></stop>
        </linearGradient>
        <linearGradient x1="50%" y1="12.5661312%" x2="50%" y2="86.563382%" id="linearGradient-81">
            <stop stop-color="#366DFA" offset="0%"></stop>
            <stop stop-color="#0AAAED" offset="100%"></stop>
        </linearGradient>
        <linearGradient x1="4.3768125%" y1="5.99014235%" x2="100%" y2="100%" id="linearGradient-82">
            <stop stop-color="#0C2FDE" offset="0%"></stop>
            <stop stop-color="#1B5FE8" offset="100%"></stop>
        </linearGradient>
        <linearGradient x1="0%" y1="63.8184209%" x2="103.182594%" y2="52.3499374%" id="linearGradient-83">
            <stop stop-color="#0990FD" stop-opacity="0" offset="0%"></stop>
            <stop stop-color="#4C40E7" offset="100%"></stop>
        </linearGradient>
        <linearGradient x1="0%" y1="59.3532153%" x2="100%" y2="34.5928956%" id="linearGradient-84">
            <stop stop-color="#0990FD" stop-opacity="0" offset="0%"></stop>
            <stop stop-color="#204CB5" offset="100%"></stop>
        </linearGradient>
        <linearGradient x1="-56.409826%" y1="76.8904322%" x2="125.813525%" y2="39.4454033%" id="linearGradient-85">
            <stop stop-color="#21F7E8" stop-opacity="0" offset="0%"></stop>
            <stop stop-color="#0396FF" offset="100%"></stop>
        </linearGradient>
        <linearGradient x1="50.1275053%" y1="-0.0765731598%" x2="50.1275053%" y2="99.9608011%" id="linearGradient-86">
            <stop stop-color="#21F7E8" offset="0%"></stop>
            <stop stop-color="#19DFEE" offset="19.19%"></stop>
            <stop stop-color="#0DB7F7" offset="54.55%"></stop>
            <stop stop-color="#069FFD" offset="82.72%"></stop>
            <stop stop-color="#0396FF" offset="100%"></stop>
        </linearGradient>
        <linearGradient x1="0%" y1="100%" x2="100%" y2="0%" id="linearGradient-87">
            <stop stop-color="#5EFFBD" offset="0%"></stop>
            <stop stop-color="#2357AB" offset="100%"></stop>
        </linearGradient>
        <linearGradient x1="0%" y1="14.1195652%" x2="91.7420629%" y2="89.1093517%" id="linearGradient-88">
            <stop stop-color="#BC35E6" offset="0%"></stop>
            <stop stop-color="#4A5BD2" offset="100%"></stop>
        </linearGradient>
        <linearGradient x1="0%" y1="0%" x2="100%" y2="100%" id="linearGradient-89">
            <stop stop-color="#B437E5" offset="0%"></stop>
            <stop stop-color="#FFFFFF" offset="100%"></stop>
        </linearGradient>
        <linearGradient x1="0%" y1="0%" x2="108.567942%" y2="109.490881%" id="linearGradient-90">
            <stop stop-color="#AF39E3" offset="0%"></stop>
            <stop stop-color="#FFFFFF" offset="100%"></stop>
        </linearGradient>
        <linearGradient x1="0.0264705882%" y1="49.8801303%" x2="100.034608%" y2="49.8801303%" id="linearGradient-91">
            <stop stop-color="#B3FFAB" stop-opacity="0" offset="0%"></stop>
            <stop stop-color="#12FFF7" offset="100%"></stop>
        </linearGradient>
        <linearGradient x1="-0.42826087%" y1="49.5459779%" x2="100.041304%" y2="49.5459779%" id="linearGradient-92">
            <stop stop-color="#B3FFAB" offset="0%"></stop>
            <stop stop-color="#B3FFAB" offset="0.537634%"></stop>
            <stop stop-color="#B0FFAD" offset="2.146862%"></stop>
            <stop stop-color="#6DFFCC" offset="36.71%"></stop>
            <stop stop-color="#3CFFE3" offset="65.69%"></stop>
            <stop stop-color="#1DFFF2" offset="87.64%"></stop>
            <stop stop-color="#12FFF7" offset="100%"></stop>
        </linearGradient>
        <linearGradient x1="-0.304347826%" y1="50.3864818%" x2="100.167391%" y2="50.3864818%" id="linearGradient-93">
            <stop stop-color="#B3FFAB" offset="0%"></stop>
            <stop stop-color="#B3FFAB" offset="0.537634%"></stop>
            <stop stop-color="#B0FFAD" offset="2.146862%"></stop>
            <stop stop-color="#6DFFCC" offset="36.71%"></stop>
            <stop stop-color="#3CFFE3" offset="65.69%"></stop>
            <stop stop-color="#1DFFF2" offset="87.64%"></stop>
            <stop stop-color="#12FFF7" offset="100%"></stop>
        </linearGradient>
        <linearGradient x1="-0.530434783%" y1="49.996488%" x2="99.9369565%" y2="49.996488%" id="linearGradient-94">
            <stop stop-color="#B3FFAB" offset="0%"></stop>
            <stop stop-color="#B3FFAB" offset="0.537634%"></stop>
            <stop stop-color="#B0FFAD" offset="2.146862%"></stop>
            <stop stop-color="#6DFFCC" offset="36.71%"></stop>
            <stop stop-color="#3CFFE3" offset="65.69%"></stop>
            <stop stop-color="#1DFFF2" offset="87.64%"></stop>
            <stop stop-color="#12FFF7" offset="100%"></stop>
        </linearGradient>
        <linearGradient x1="0.504347826%" y1="49.5075719%" x2="100.973913%" y2="49.5075719%" id="linearGradient-95">
            <stop stop-color="#B3FFAB" offset="0%"></stop>
            <stop stop-color="#B3FFAB" offset="0.537634%"></stop>
            <stop stop-color="#B0FFAD" offset="2.146862%"></stop>
            <stop stop-color="#6DFFCC" offset="36.71%"></stop>
            <stop stop-color="#3CFFE3" offset="65.69%"></stop>
            <stop stop-color="#1DFFF2" offset="87.64%"></stop>
            <stop stop-color="#12FFF7" offset="100%"></stop>
        </linearGradient>
    </defs>
    <g id="登录页" stroke="none" stroke-width="1" fill="none" fill-rule="evenodd">
        <g id="登录" transform="translate(-103.000000, -171.000000)">
            <g id="分组-10" transform="translate(103.000000, 171.000000)">
                <g id="分组-9">
                    <g>
                        <g id="分组-8" transform="translate(367.000000, 12.000000)">
                            <path d="M193.201296,108.222051 C200.301296,112.322051 206.001296,122.122051 205.901296,130.122051 L205.601296,248.322051 C205.601296,256.422051 199.801296,259.622051 192.801296,255.622051 L12.7012959,152.222051 C5.60129594,148.122051 -0.0987040637,138.322051 0.00129593626,130.322051 L0.301295936,12.1220506 C0.301295936,4.02205061 6.10129594,0.822050614 13.1012959,4.82205061 L193.201296,108.222051 Z" id="路径" fill="url(#linearGradient-1)"></path>
                            <path d="M198.401296,105.122051 L18.3012959,1.72205061 C14.7012959,-0.277949386 11.5012959,-0.477949386 9.20129594,0.822050614 C6.20129594,2.52205061 7.00129594,2.12205061 4.00129594,3.82205061 C4.00129594,3.82205061 4.00129594,3.82205061 4.00129594,3.82205061 C3.90129594,3.92205061 3.80129594,3.92205061 3.70129594,4.02205061 C6.00129594,2.52205061 9.40129594,2.62205061 13.0012959,4.72205061 L193.101296,108.122051 C200.201296,112.222051 205.901296,122.022051 205.801296,130.022051 L205.501296,248.222051 C205.501296,252.222051 204.101296,255.022051 201.801296,256.322051 C201.801296,256.322051 201.801296,256.322051 201.801296,256.322051 C201.801296,256.322051 201.801296,256.322051 201.801296,256.322051 C204.801296,254.622051 204.001296,255.022051 207.001296,253.322051 C209.301296,252.022051 210.701296,249.222051 210.701296,245.122051 L211.001296,126.922051 C211.201296,119.022051 205.501296,109.222051 198.401296,105.122051 Z" id="路径" fill="url(#linearGradient-2)"></path>
                            <path d="M147.901296,110.222051 L147.801296,137.822051 L169.101296,137.122051 C170.901296,142.022051 171.901296,147.022051 171.901296,151.722051 C171.901296,166.922051 161.001296,173.122051 147.701296,165.422051 C134.401296,157.822051 123.601296,139.222051 123.601296,124.022051 C123.701296,108.722051 134.601296,102.522051 147.901296,110.222051 Z" id="路径" fill="#FFFFFF"></path>
                            <path d="M150.801296,106.222051 C160.001296,111.522051 168.001296,122.022051 172.101296,133.022051 L150.801296,133.722051 L150.801296,106.222051 Z" id="路径" fill="#FFFFFF"></path>
                            <path d="M45.5012959,132.522051 C46.3012959,133.022051 46.9012959,134.122051 46.9012959,135.022051 C46.9012959,135.922051 46.2012959,136.322051 45.5012959,135.822051 L30.8012959,127.422051 C30.0012959,126.922051 29.4012959,125.822051 29.4012959,124.922051 C29.4012959,124.022051 30.0012959,123.622051 30.8012959,124.122051 L45.5012959,132.522051 Z" id="路径" fill="#FFFFFF"></path>
                            <path d="M40.7012959,121.822051 C41.5012959,122.322051 42.1012959,123.422051 42.1012959,124.322051 C42.1012959,125.222051 41.5012959,125.622051 40.7012959,125.122051 L30.8012959,119.422051 C30.0012959,118.922051 29.4012959,117.822051 29.4012959,116.922051 C29.4012959,116.022051 30.1012959,115.622051 30.8012959,116.122051 L40.7012959,121.822051 Z" id="路径" fill="#FFFFFF"></path>
                            <path d="M61.0012959,141.422051 C61.8012959,141.922051 62.4012959,143.022051 62.4012959,143.922051 C62.4012959,144.822051 61.7012959,145.222051 61.0012959,144.722051 L52.7012959,139.922051 C51.9012959,139.422051 51.3012959,138.322051 51.3012959,137.422051 C51.3012959,136.522051 52.0012959,136.122051 52.7012959,136.622051 L61.0012959,141.422051 Z" id="路径" fill="#FFFFFF"></path>
                            <path d="M76.0012959,157.522051 C76.8012959,158.022051 77.4012959,159.122051 77.4012959,160.022051 C77.4012959,160.922051 76.8012959,161.322051 76.0012959,160.822051 L62.9012959,153.322051 C62.1012959,152.822051 61.5012959,151.722051 61.5012959,150.822051 C61.5012959,149.922051 62.1012959,149.522051 62.9012959,150.022051 L76.0012959,157.522051 Z" id="路径" fill="#FFFFFF"></path>
                            <path d="M76.0012959,150.122051 C76.8012959,150.622051 77.4012959,151.722051 77.4012959,152.622051 C77.4012959,153.522051 76.8012959,153.922051 76.0012959,153.422051 L67.7012959,148.622051 C66.9012959,148.122051 66.3012959,147.022051 66.3012959,146.122051 C66.3012959,145.222051 66.9012959,144.822051 67.7012959,145.322051 L76.0012959,150.122051 Z" id="路径" fill="#FFFFFF"></path>
                            <path d="M56.2012959,146.122051 C57.0012959,146.622051 57.6012959,147.722051 57.6012959,148.622051 C57.6012959,149.522051 57.0012959,149.922051 56.2012959,149.422051 L43.1012959,141.922051 C42.3012959,141.422051 41.7012959,140.322051 41.7012959,139.422051 C41.7012959,138.522051 42.4012959,138.122051 43.1012959,138.622051 L56.2012959,146.122051 Z" id="路径" fill="#FFFFFF"></path>
                            <path d="M76.0012959,142.122051 C76.8012959,142.622051 77.4012959,143.722051 77.4012959,144.622051 C77.4012959,145.522051 76.7012959,145.922051 76.0012959,145.422051 L47.8012959,129.222051 C47.0012959,128.722051 46.4012959,127.622051 46.4012959,126.722051 C46.4012959,125.822051 47.0012959,125.422051 47.8012959,125.922051 L76.0012959,142.122051 Z" id="路径" fill="#FFFFFF"></path>
                            <path d="M35.9012959,134.422051 C36.7012959,134.922051 37.3012959,136.022051 37.3012959,136.922051 C37.3012959,137.822051 36.6012959,138.222051 35.9012959,137.722051 L30.8012959,134.822051 C30.0012959,134.322051 29.4012959,133.222051 29.4012959,132.322051 C29.4012959,131.422051 30.0012959,131.022051 30.8012959,131.522051 L35.9012959,134.422051 Z" id="路径" fill="#FFFFFF"></path>
                            <path d="M156.201296,187.122051 C157.001296,187.622051 157.701296,188.722051 157.701296,189.622051 C157.701296,190.522051 157.001296,190.922051 156.201296,190.422051 L142.801296,182.722051 C142.001296,182.222051 141.301296,181.122051 141.301296,180.222051 C141.301296,179.322051 142.001296,178.922051 142.801296,179.422051 L156.201296,187.122051 Z" id="路径" fill="#FFFFFF"></path>
                            <path d="M146.501296,189.022051 C147.301296,189.522051 148.001296,190.622051 148.001296,191.522051 C148.001296,192.422051 147.301296,192.822051 146.501296,192.322051 L138.001296,187.422051 C137.201296,186.922051 136.501296,185.822051 136.501296,184.922051 C136.501296,184.022051 137.201296,183.622051 138.001296,184.122051 L146.501296,189.022051 Z" id="路径" fill="#FFFFFF"></path>
                            <path d="M136.001296,175.422051 C136.801296,175.922051 137.501296,177.022051 137.501296,177.922051 C137.501296,178.822051 136.801296,179.222051 136.001296,178.722051 L122.601296,171.022051 C121.801296,170.522051 121.101296,169.422051 121.101296,168.522051 C121.101296,167.622051 121.801296,167.222051 122.601296,167.722051 L136.001296,175.422051 Z" id="路径" fill="#FFFFFF"></path>
                            <path d="M131.101296,180.222051 C131.901296,180.722051 132.601296,181.822051 132.601296,182.722051 C132.601296,183.622051 131.901296,184.022051 131.101296,183.522051 L122.601296,178.622051 C121.801296,178.122051 121.101296,177.022051 121.101296,176.122051 C121.101296,175.222051 121.801296,174.822051 122.601296,175.322051 L131.101296,180.222051 Z" id="路径" fill="#FFFFFF"></path>
                            <path d="M151.401296,200.022051 C152.201296,200.522051 152.901296,201.622051 152.901296,202.522051 C152.901296,203.422051 152.201296,203.822051 151.401296,203.322051 L122.601296,186.822051 C121.801296,186.322051 121.101296,185.222051 121.101296,184.322051 C121.101296,183.422051 121.801296,183.022051 122.601296,183.522051 L151.401296,200.022051 Z" id="路径" fill="#FFFFFF"></path>
                            <path d="M168.801296,201.822051 C169.601296,202.322051 170.301296,203.422051 170.301296,204.322051 C170.301296,205.222051 169.601296,205.622051 168.801296,205.122051 L153.801296,196.522051 C153.001296,196.022051 152.301296,194.922051 152.301296,194.022051 C152.301296,193.122051 153.001296,192.722051 153.801296,193.222051 L168.801296,201.822051 Z" id="路径" fill="#FFFFFF"></path>
                            <path d="M168.801296,210.022051 C169.601296,210.522051 170.301296,211.622051 170.301296,212.522051 C170.301296,213.422051 169.601296,213.822051 168.801296,213.322051 L158.701296,207.522051 C157.901296,207.022051 157.201296,205.922051 157.201296,205.022051 C157.201296,204.122051 157.901296,203.722051 158.701296,204.222051 L168.801296,210.022051 Z" id="路径" fill="#FFFFFF"></path>
                            <path d="M168.801296,194.322051 C169.601296,194.822051 170.301296,195.922051 170.301296,196.822051 C170.301296,197.722051 169.601296,198.122051 168.801296,197.622051 L163.601296,194.622051 C162.801296,194.122051 162.101296,193.022051 162.101296,192.122051 C162.101296,191.222051 162.801296,190.822051 163.601296,191.322051 L168.801296,194.322051 Z" id="路径" fill="#FFFFFF"></path>
                            <polygon id="路径" fill="#FFFFFF" points="40.3012959 81.8220506 40.2012959 86.0220506 30.9012959 80.7220506 30.9012959 76.5220506"></polygon>
                            <polygon id="路径" fill="#FFFFFF" opacity="0.82328869" points="40.2012959 86.0220506 40.2012959 102.722051 30.8012959 97.4220506 30.9012959 80.7220506"></polygon>
                            <polygon id="路径" fill="#FFFFFF" points="54.1012959 75.2220506 54.1012959 79.8220506 44.8012959 74.4220506 44.8012959 69.8220506"></polygon>
                            <polygon id="路径" fill="#FFFFFF" opacity="0.82328869" points="54.1012959 79.8220506 54.0012959 110.722051 44.7012959 105.322051 44.8012959 74.4220506"></polygon>
                            <polygon id="路径" fill="#FFFFFF" opacity="0.82328869" points="67.9012959 96.2220506 67.9012959 118.622051 58.5012959 113.222051 58.6012959 90.8220506"></polygon>
                            <polygon id="路径" fill="#FFFFFF" opacity="0.82328869" points="68.0012959 88.3220506 67.9012959 96.2220506 58.6012959 90.8220506 58.6012959 82.9220506"></polygon>
                            <polygon id="路径" fill="#FFFFFF" opacity="0.82328869" points="81.8012959 89.7220506 81.7012959 126.622051 72.4012959 121.222051 72.5012959 84.3220506"></polygon>
                            <polygon id="路径" fill="#FFFFFF" opacity="0.82328869" points="81.9012959 79.3220506 81.8012959 89.7220506 72.5012959 84.3220506 72.5012959 73.9220506"></polygon>
                        </g>
                        <path d="M271.549669,439.640082 C265.515232,439.640082 259.84106,438.290389 255.517881,435.860941 L32.2437086,307.100204 C27.7403974,304.490798 25.218543,300.981595 25.218543,297.202454 C25.218543,293.423313 27.6503311,289.91411 32.1536424,287.304703 L253.896689,158.543967 C258.129801,156.114519 263.803974,154.764826 269.838411,154.764826 C275.872848,154.764826 281.54702,156.114519 285.870199,158.543967 L509.144371,287.304703 C513.647682,289.91411 516.169536,293.423313 516.169536,297.202454 C516.169536,300.981595 513.737748,304.490798 509.234437,307.100204 L287.491391,435.860941 C283.258278,438.290389 277.584106,439.640082 271.549669,439.640082 Z M270.018543,156.924335 C264.434437,156.924335 259.12053,158.184049 255.157616,160.523517 L33.4145695,289.284254 C29.7218543,291.443763 27.6503311,294.233129 27.6503311,297.202454 C27.6503311,300.171779 29.7218543,302.961145 33.5046358,305.210634 L256.778808,433.97137 C260.741722,436.310838 266.055629,437.570552 271.639735,437.570552 C277.223841,437.570552 282.537748,436.310838 286.500662,433.97137 L508.153642,305.120654 C511.846358,302.961145 513.917881,300.171779 513.917881,297.202454 C513.917881,294.233129 511.846358,291.443763 508.063576,289.194274 L284.789404,160.433538 C280.82649,158.184049 275.602649,156.924335 270.018543,156.924335 Z" id="形状" fill="url(#linearGradient-3)" opacity="0.161644345"></path>
                        <g id="分组-2" transform="translate(70.251656, 143.967280)">
                            <polygon id="路径-21-copy" fill="url(#linearGradient-4)" points="0.613466069 116.609255 191.556084 227.774889 387.095706 113.930986 191.556084 0"></polygon>
                            <polygon id="路径-23-copy" fill-opacity="0.8" fill="url(#linearGradient-5)" points="191.146541 250.129331 386.448829 135.935853 386.448829 113.53701 190.925154 227.415258"></polygon>
                            <polygon id="路径" fill="url(#linearGradient-6)" points="364.390269 114.179701 194.397604 213.761739 20.778943 114.179701 194.397604 12.6152234"></polygon>
                        </g>
                        <g id="分组-5" transform="translate(22.516556, 126.871166)">
                            <g id="分组">
                                <g id="形状">
                                    <use fill="black" fill-opacity="1" filter="url(#filter-8)" xlink:href="#path-7"></use>
                                    <use fill="url(#linearGradient-3)" fill-rule="evenodd" xlink:href="#path-7"></use>
                                </g>
                            </g>
                            <path d="M91.8675497,85.9648138 L129.852927,63.8854806" id="路径-3" stroke="url(#linearGradient-9)" stroke-width="2.25"></path>
                            <path d="M68.1971677,186.626565 L108.905591,210.108555" id="路径-3-copy-4" stroke="url(#linearGradient-9)" stroke-width="2.25"></path>
                            <path d="M430.516556,183.142728 L468.501933,161.063395" id="路径-3-copy-2" stroke="url(#linearGradient-9)" stroke-width="2.25"></path>
                            <path d="M354.33329,59.5924096 L389.778728,79.7762482" id="路径-3-copy-3" stroke="url(#linearGradient-10)" stroke-width="2.25"></path>
                        </g>
                        <g id="分组-3" transform="translate(273.801325, 360.817996)" fill="#FFF36A">
                            <rect id="矩形" x="0" y="8.6605317" width="2.57332072" height="11.1349693"></rect>
                            <rect id="矩形-copy-2" x="3.85998108" y="7.42331288" width="2.57332072" height="11.1349693"></rect>
                            <rect id="矩形-copy-3" x="7.71996216" y="4.94887526" width="2.57332072" height="11.1349693"></rect>
                            <rect id="矩形-copy-4" x="11.5799432" y="2.47443763" width="2.57332072" height="11.1349693"></rect>
                            <rect id="矩形-copy-5" x="15.4399243" y="0" width="2.57332072" height="11.1349693"></rect>
                        </g>
                        <g id="分组" transform="translate(154.013245, 0.000000)">
                            <g>
                                <polygon id="路径" fill="url(#linearGradient-11)" points="191.895099 224.796106 191.895099 294.0264 110.24106 346.04355 111.105695 272.226682"></polygon>
                                <polygon id="路径" fill="url(#linearGradient-12)" points="24.8582781 222.31396 24.8582781 291.544254 110.24106 346.04355 111.105695 265.805478"></polygon>
                                <path d="M215.942781,232.080666 L118.455099,289.709624 C114.077881,292.29969 108.565828,292.29969 104.188609,289.763584 L2.32370861,230.138116 C-0.540397351,228.465366 -0.486357616,224.256509 2.43178808,222.637718 L101.702781,168.030503 C106.188079,165.548357 111.646093,165.710236 116.023311,168.46218 L216.050861,226.684696 C218.050331,227.925769 217.996291,230.893552 215.942781,232.080666 Z" id="XMLID_1121_" stroke="url(#linearGradient-13)" stroke-width="0.60021"></path>
                                <g id="XMLID_1114_" transform="translate(24.317881, 147.849575)">
                                    <path d="M84.5181457,127.29093 L134.126623,127.29093 C141.908344,127.29093 149.527947,125.240461 156.228874,121.301403 L221.508874,85.0944454 L141.313907,36.9623938 L84.5181457,127.29093 Z" id="路径" fill="url(#linearGradient-14)"></path>
                                    <g id="XMLID_1115_">
                                        <g id="XMLID_1119_" transform="translate(0.540397, 45.326147)" fill="url(#linearGradient-15)">
                                            <path d="M86.2474172,48.1320516 L90.1382781,81.1014277 C87.7605298,82.5043798 84.7883444,82.5043798 82.3565563,81.1014277 L3.62066225,35.3436029 C1.40503311,34.0485701 -2.27373675e-13,31.6743433 -2.27373675e-13,29.0842778 L-2.27373675e-13,0.269798495 L86.2474172,48.1320516 Z" id="XMLID_1120_"></path>
                                        </g>
                                        <g id="XMLID_1117_" transform="translate(86.463576, 48.024132)" fill="url(#linearGradient-16)">
                                            <path d="M81.1136424,0.215838796 L81.1136424,28.9763584 C81.1136424,31.5124642 79.762649,33.886691 77.5470199,35.1817238 L4.05298013,78.5113621 C2.37774834,79.4826367 0.324238411,78.2955233 0.324238411,76.3529742 L0.324238411,43.0598398 L81.1136424,0.215838796 Z" id="XMLID_1118_"></path>
                                        </g>
                                        <path d="M166.388344,50.6141977 L91.4892715,94.9151106 C88.0847682,96.9116195 83.9237086,96.9116195 80.5192053,94.9151106 L2.1615894,49.1033261 C-0.0540397351,47.8082934 0,44.5707114 2.21562914,43.3296383 L78.5197351,1.34899248 C81.9782781,-0.53959699 86.1933775,-0.431677592 89.4898013,1.67275067 L166.388344,46.4053412 C167.955497,47.4305755 167.955497,49.6968828 166.388344,50.6141977 Z" id="XMLID_1116_" fill="url(#linearGradient-17)"></path>
                                    </g>
                                </g>
                                <g id="XMLID_1107_" transform="translate(24.858278, 103.063025)">
                                    <g id="XMLID_1108_">
                                        <g id="XMLID_1112_" transform="translate(0.000000, 45.865744)" fill="url(#linearGradient-18)">
                                            <path d="M86.2474172,48.0780919 L90.1382781,81.047468 C87.7605298,82.4504201 84.7883444,82.4504201 82.3565563,81.047468 L3.62066225,35.2896432 C1.40503311,33.9946104 -2.27373675e-13,31.6203836 -2.27373675e-13,29.0303181 L-2.27373675e-13,0.215838796 L86.2474172,48.0780919 Z" id="XMLID_1113_"></path>
                                        </g>
                                        <g id="XMLID_1110_" transform="translate(85.923179, 48.563729)" fill="url(#linearGradient-19)">
                                            <path d="M81.1136424,0.107919398 L81.1136424,28.868439 C81.1136424,31.4045448 79.762649,33.7787716 77.5470199,35.0738044 L4.05298013,78.4034427 C2.37774834,79.3747173 0.324238411,78.1876039 0.324238411,76.2450548 L0.324238411,42.9519204 L81.1136424,0.107919398 Z" id="XMLID_1111_"></path>
                                        </g>
                                        <path d="M165.847947,51.099835 L90.9488742,95.4007479 C87.5443709,97.3972568 83.3833113,97.3972568 79.9788079,95.4007479 L1.67523179,49.5889634 C-0.540397351,48.2939306 -0.486357616,45.0563487 1.72927152,43.8152756 L78.0333775,1.83462977 C81.4919205,-0.053959699 85.7070199,0.053959699 89.0034437,2.15838796 L165.901987,46.8909785 C167.415099,47.9162128 167.415099,50.1285604 165.847947,51.099835 Z" id="XMLID_1109_" fill="url(#linearGradient-20)"></path>
                                    </g>
                                </g>
                                <path d="M178.601325,152.759908 L114.672318,190.531697 C111.808212,192.258408 108.18755,192.258408 105.323444,190.531697 L38.5303311,151.410916 C36.6389404,150.277762 36.6929801,147.579777 38.5843709,146.500583 L103.702252,110.725302 C106.620397,109.106511 110.24106,109.214431 113.051126,110.995101 L178.655364,149.198568 C179.952318,150.061923 179.952318,152.004472 178.601325,152.759908 Z" id="XMLID_1106_" fill="url(#linearGradient-21)"></path>
                                <path d="M88.4630464,188.912906 L99.4871523,195.280151 L104.999205,198.463773 C106.836556,199.489007 108.998146,199.974645 111.105695,199.812766 C111.646093,199.812766 112.13245,199.704846 112.672848,199.596927 C113.159205,199.435048 113.699603,199.327128 114.18596,199.111289 C115.158675,198.733572 116.077351,198.193975 116.996026,197.654378 L122.508079,194.416796 L133.478146,187.995591 L122.562119,194.524715 L117.104106,197.762297 C116.18543,198.301894 115.266755,198.895451 114.29404,199.273169 C113.807682,199.489007 113.267285,199.596927 112.780927,199.758806 C112.24053,199.866725 111.754172,199.974645 111.213775,199.974645 C109.106225,200.136524 106.890596,199.650886 105.053245,198.571692 L99.5411921,195.334111 L88.4630464,188.912906 Z" id="路径" fill="#DCCAFF"></path>
                                <g transform="translate(118.887417, 199.650886)" id="路径">
                                    <g>
                                        <path d="M0.270198675,10.9538189 C0.270198675,10.9538189 5.83629139,8.79543094 8.64635762,5.3959699 C9.83523179,3.93905803 9.29483444,0.215838796 6.43072848,0.485637291 C5.29589404,0.59355669 3.29642384,0.863355185 0.270198675,2.21234766 L0.270198675,10.9538189 Z" fill="url(#linearGradient-22)"></path>
                                        <path d="M0.270198675,4.26281622 L0.270198675,2.21234766 C0.270198675,2.21234766 5.29589404,6.58308328 0.270198675,10.9538189 L0.270198675,4.26281622 Z" fill="url(#linearGradient-23)"></path>
                                    </g>
                                    <g transform="translate(0.000000, 10.791940)">
                                        <path d="M0.270198675,10.7919398 C0.270198675,10.7919398 5.83629139,8.63355185 8.64635762,5.23409081 C9.83523179,3.77717893 9.29483444,0.053959699 6.43072848,0.323758194 C5.29589404,0.431677592 3.29642384,0.701476088 0.270198675,2.05046856 L0.270198675,10.7919398 Z" fill="url(#linearGradient-24)"></path>
                                        <path d="M0.270198675,4.10093713 L0.270198675,2.05046856 C0.270198675,2.05046856 5.29589404,6.42120419 0.270198675,10.7919398 L0.270198675,4.10093713 Z" fill="url(#linearGradient-25)"></path>
                                    </g>
                                </g>
                                <g transform="translate(92.407947, 199.650886)" id="路径">
                                    <g>
                                        <path d="M9.0786755,11.0077786 C9.0786755,11.0077786 3.51258278,8.84939064 0.702516556,5.4499296 C-0.486357616,3.99301773 0.0540397351,0.269798495 2.9181457,0.53959699 C4.05298013,0.647516389 6.05245033,0.917314884 9.0786755,2.26630736 L9.0786755,11.0077786 Z" fill="url(#linearGradient-26)"></path>
                                        <path d="M9.0786755,4.31677592 L9.0786755,2.26630736 C9.0786755,2.26630736 4.05298013,6.63704298 9.0786755,11.0077786 L9.0786755,4.31677592 Z" fill="url(#linearGradient-27)"></path>
                                    </g>
                                    <g transform="translate(0.000000, 10.791940)">
                                        <path d="M9.0786755,10.8458995 C9.0786755,10.8458995 3.51258278,8.68751155 0.702516556,5.28805051 C-0.486357616,3.83113863 0.0540397351,0.107919398 2.9181457,0.377717893 C4.05298013,0.485637291 6.05245033,0.755435787 9.0786755,2.10442826 L9.0786755,10.8458995 Z" fill="url(#linearGradient-28)"></path>
                                        <path d="M9.0786755,4.15489683 L9.0786755,2.10442826 C9.0786755,2.10442826 4.05298013,6.47516389 9.0786755,10.8458995 L9.0786755,4.15489683 Z" fill="url(#linearGradient-29)"></path>
                                    </g>
                                </g>
                                <g transform="translate(99.973510, 203.967662)" id="路径">
                                    <g transform="translate(0.000000, 10.252343)">
                                        <path d="M1.45907285,0.485637291 L4.86357616,2.48214616 C8.26807947,4.47865502 12.4831788,4.47865502 15.8336424,2.48214616 L19.184106,0.485637291 L20.2649007,0.971274583 L16.3740397,4.64053412 L8.26807947,5.8816072 L4.32317881,4.31677592 L0.324238411,1.02523428 L1.45907285,0.485637291 Z" fill="url(#linearGradient-30)"></path>
                                        <path d="M20.2649007,0.917314884 L15.8336424,3.56134014 C12.4291391,5.557849 8.26807947,5.557849 4.86357616,3.56134014 L0.378278146,0.917314884 L0.378278146,4.31677592 L4.86357616,6.96080118 C8.26807947,8.95731004 12.4831788,8.95731004 15.8336424,6.96080118 L20.2649007,4.31677592 L20.2649007,0.917314884 Z" fill="url(#linearGradient-31)"></path>
                                    </g>
                                    <g>
                                        <path d="M1.45907285,0.053959699 L4.86357616,2.05046856 C8.26807947,4.04697743 12.4831788,4.04697743 15.8336424,2.05046856 L19.184106,0.053959699 L20.2649007,0.53959699 L16.3740397,4.20885653 L8.26807947,5.4499296 L4.32317881,3.88509833 L0.324238411,0.59355669 L1.45907285,0.053959699 Z" fill="url(#linearGradient-32)"></path>
                                        <path d="M20.2649007,0.485637291 L15.8336424,3.12966254 C12.4291391,5.12617141 8.26807947,5.12617141 4.86357616,3.12966254 L0.378278146,0.485637291 L0.378278146,3.88509833 L4.86357616,6.52912358 C8.26807947,8.52563245 12.4831788,8.52563245 15.8336424,6.52912358 L20.2649007,3.88509833 L20.2649007,0.485637291 Z" fill="url(#linearGradient-33)"></path>
                                    </g>
                                </g>
                                <g transform="translate(119.968212, 244.977034)" id="路径">
                                    <g>
                                        <path d="M0.0540397351,10.5221413 C0.0540397351,10.5221413 5.62013245,8.36375335 8.43019868,4.96429231 C9.61907285,3.50738044 9.0786755,-0.215838796 6.21456954,0.053959699 C5.0797351,0.161879097 3.0802649,0.431677592 0.0540397351,1.78067007 L0.0540397351,10.5221413 Z" fill="url(#linearGradient-34)"></path>
                                        <path d="M0.0540397351,3.83113863 L0.0540397351,1.78067007 C0.0540397351,1.78067007 5.0797351,6.15140569 0.0540397351,10.5221413 L0.0540397351,3.83113863 Z" fill="url(#linearGradient-35)"></path>
                                    </g>
                                    <g transform="translate(0.000000, 10.252343)">
                                        <path d="M0.0540397351,10.8998592 C0.0540397351,10.8998592 5.62013245,8.74147125 8.43019868,5.34201021 C9.61907285,3.88509833 9.0786755,0.161879097 6.21456954,0.431677592 C5.0797351,0.53959699 3.0802649,0.809395486 0.0540397351,2.15838796 L0.0540397351,10.8998592 Z" fill="url(#linearGradient-36)"></path>
                                        <path d="M0.0540397351,4.20885653 L0.0540397351,2.15838796 C0.0540397351,2.15838796 5.0797351,6.52912358 0.0540397351,10.8998592 L0.0540397351,4.20885653 Z" fill="url(#linearGradient-37)"></path>
                                    </g>
                                </g>
                                <g transform="translate(92.948344, 244.977034)" id="路径">
                                    <g>
                                        <path d="M9.34887417,10.576101 C9.34887417,10.576101 3.78278146,8.41771305 0.972715232,5.01825201 C-0.21615894,3.56134014 0.324238411,-0.161879097 3.18834437,0.107919398 C4.32317881,0.215838796 6.32264901,0.485637291 9.34887417,1.83462977 L9.34887417,10.576101 Z" fill="url(#linearGradient-38)"></path>
                                        <path d="M9.34887417,3.88509833 L9.34887417,1.83462977 C9.34887417,1.83462977 4.32317881,6.20536539 9.34887417,10.576101 L9.34887417,3.88509833 Z" fill="url(#linearGradient-39)"></path>
                                    </g>
                                    <g transform="translate(0.000000, 10.252343)">
                                        <path d="M9.34887417,10.9538189 C9.34887417,10.9538189 3.78278146,8.79543094 0.972715232,5.3959699 C-0.21615894,3.93905803 0.324238411,0.215838796 3.18834437,0.485637291 C4.32317881,0.59355669 6.32264901,0.863355185 9.34887417,2.21234766 L9.34887417,10.9538189 Z" fill="url(#linearGradient-40)"></path>
                                        <path d="M9.34887417,4.26281622 L9.34887417,2.21234766 C9.34887417,2.21234766 4.32317881,6.58308328 9.34887417,10.9538189 L9.34887417,4.26281622 Z" fill="url(#linearGradient-41)"></path>
                                    </g>
                                </g>
                                <g transform="translate(101.054305, 248.754213)" id="路径">
                                    <g transform="translate(0.000000, 10.252343)">
                                        <path d="M1.18887417,0.431677592 L4.59337748,2.42818646 C7.99788079,4.42469532 12.2129801,4.42469532 15.5634437,2.42818646 L18.9139073,0.431677592 L19.994702,0.917314884 L16.1038411,4.58657442 L7.99788079,5.8276475 L4.05298013,4.26281622 L0.0540397351,0.971274583 L1.18887417,0.431677592 Z" fill="url(#linearGradient-42)"></path>
                                        <path d="M19.994702,0.917314884 L15.5634437,3.56134014 C12.1589404,5.557849 7.99788079,5.557849 4.59337748,3.56134014 L0.10807947,0.917314884 L0.10807947,4.31677592 L4.59337748,6.96080118 C7.99788079,8.95731004 12.2129801,8.95731004 15.5634437,6.96080118 L19.994702,4.31677592 L19.994702,0.917314884 Z" fill="url(#linearGradient-43)"></path>
                                    </g>
                                    <g>
                                        <path d="M1.18887417,0 L4.59337748,1.99650886 C7.99788079,3.99301773 12.2129801,3.99301773 15.5634437,1.99650886 L18.9139073,0 L19.994702,0.485637291 L16.1038411,4.15489683 L7.99788079,5.3959699 L4.05298013,3.83113863 L0.0540397351,0.53959699 L1.18887417,0 Z" fill="url(#linearGradient-44)"></path>
                                        <path d="M19.994702,0.431677592 L15.5634437,3.07570285 C12.1589404,5.07221171 7.99788079,5.07221171 4.59337748,3.07570285 L0.10807947,0.431677592 L0.10807947,3.83113863 L4.59337748,6.47516389 C7.99788079,8.47167275 12.2129801,8.47167275 15.5634437,6.47516389 L19.994702,3.83113863 L19.994702,0.431677592 Z" fill="url(#linearGradient-45)"></path>
                                    </g>
                                </g>
                                <g transform="translate(50.256954, 180.225395)">
                                    <path d="M6.97112583,6.69100268 C6.97112583,8.84939064 5.45801325,9.71274583 3.56662252,8.63355185 C1.67523179,7.55435787 0.162119205,4.91033261 0.162119205,2.75194465 C0.162119205,0.59355669 1.67523179,-0.269798495 3.56662252,0.809395486 C5.45801325,1.88858947 6.97112583,4.53261472 6.97112583,6.69100268 Z" id="路径" fill="url(#linearGradient-46)"></path>
                                    <ellipse id="椭圆形" fill="#987EF5" transform="translate(15.394013, 11.665564) rotate(-30.311289) translate(-15.394013, -11.665564) " cx="15.3940129" cy="11.6655635" rx="2.75500092" ry="4.80424954"></ellipse>
                                    <path d="M30.5324503,20.5046856 C30.5324503,22.6630736 29.0193377,23.5264288 27.127947,22.4472348 C25.2365563,21.3680408 23.7234437,18.7240156 23.7234437,16.5656276 C23.7234437,14.4072396 25.2365563,13.5438845 27.127947,14.6230784 C29.0193377,15.7022724 30.5324503,18.3462977 30.5324503,20.5046856 Z" id="路径" fill="url(#linearGradient-47)"></path>
                                </g>
                                <g transform="translate(48.635762, 222.853557)">
                                    <path d="M6.97112583,6.63704298 C6.97112583,8.79543094 5.45801325,9.65878613 3.56662252,8.57959215 C1.67523179,7.50039817 0.162119205,4.85637291 0.162119205,2.69798495 C0.162119205,0.53959699 1.67523179,-0.323758194 3.56662252,0.755435787 C5.45801325,1.83462977 6.97112583,4.47865502 6.97112583,6.63704298 Z" id="路径" fill="url(#linearGradient-48)"></path>
                                    <path d="M18.8058278,13.5978442 C18.8058278,15.7562321 17.2927152,16.6195873 15.4013245,15.5403933 C13.5099338,14.4611993 11.9968212,11.8171741 11.9968212,9.65878613 C11.9968212,7.50039817 13.5099338,6.63704298 15.4013245,7.71623696 C17.2927152,8.79543094 18.8058278,11.4394562 18.8058278,13.5978442 Z" id="路径" fill="url(#linearGradient-49)"></path>
                                    <ellipse id="椭圆形" fill="#987EF5" transform="translate(27.137172, 18.511765) rotate(-30.311289) translate(-27.137172, -18.511765) " cx="27.1371716" cy="18.5117651" rx="2.75500092" ry="4.80424954"></ellipse>
                                </g>
                                <g transform="translate(144.826490, 220.695169)" id="路径">
                                    <g>
                                        <polygon fill="url(#linearGradient-50)" points="21.9941722 5.23409081 0.486357616 17.5908619 0.486357616 12.4107308 21.9941722 0"></polygon>
                                        <polygon fill="url(#linearGradient-51)" points="21.9941722 15.1626754 0.486357616 27.5194465 0.486357616 22.3393154 21.9941722 9.92858462"></polygon>
                                    </g>
                                    <polygon fill="url(#linearGradient-52)" opacity="0.2" points="21.9941722 5.23409081 17.8331126 2.42818646 21.9941722 0"></polygon>
                                    <polygon fill="url(#linearGradient-53)" opacity="0.2" points="21.9941722 15.1626754 17.8331126 12.3567711 21.9941722 9.92858462"></polygon>
                                </g>
                                <g transform="translate(144.286093, 176.987813)" id="路径">
                                    <g>
                                        <polygon fill="url(#linearGradient-54)" points="21.7239735 5.557849 0.21615894 17.9146201 0.21615894 12.734489 21.7239735 0.323758194"></polygon>
                                        <polygon fill="url(#linearGradient-55)" points="21.7239735 15.4324739 0.21615894 27.8432047 0.21615894 22.6630736 21.7239735 10.2523428"></polygon>
                                    </g>
                                    <polygon fill="url(#linearGradient-56)" opacity="0.2" points="21.7239735 5.557849 17.5629139 2.69798495 21.7239735 0.323758194"></polygon>
                                    <polygon fill="url(#linearGradient-57)" opacity="0.2" points="21.7239735 15.4324739 17.5629139 12.6265696 21.7239735 10.2523428"></polygon>
                                </g>
                                <g opacity="0.2" transform="translate(49.176159, 266.021316)">
                                    <path d="M6.97112583,6.42120419 C6.97112583,8.57959215 5.45801325,9.44294733 3.56662252,8.36375335 C1.67523179,7.28455937 0.162119205,4.64053412 0.162119205,2.48214616 C0.162119205,0.323758194 1.67523179,-0.53959699 3.56662252,0.53959699 C5.45801325,1.61879097 6.97112583,4.26281622 6.97112583,6.42120419 Z" id="路径" fill="url(#linearGradient-58)"></path>
                                    <path d="M18.8058278,13.3280457 C18.8058278,15.4864336 17.2927152,16.3497888 15.4013245,15.2705948 C13.5099338,14.1914008 11.9968212,11.5473756 11.9968212,9.38898763 C11.9968212,7.23059967 13.5099338,6.36724449 15.4013245,7.44643847 C17.2927152,8.52563245 18.8058278,11.2236174 18.8058278,13.3280457 Z" id="路径" fill="url(#linearGradient-59)"></path>
                                    <ellipse id="椭圆形" fill="#987EF5" transform="translate(27.121635, 18.262121) rotate(-30.311289) translate(-27.121635, -18.262121) " cx="27.1216352" cy="18.2621205" rx="2.75500092" ry="4.80424954"></ellipse>
                                </g>
                                <g opacity="0.2" transform="translate(145.907285, 263.323331)" id="路径">
                                    <g>
                                        <polygon fill="url(#linearGradient-60)" points="21.4537748 5.557849 0 17.9146201 0 12.734489 21.4537748 0.323758194"></polygon>
                                        <polygon fill="url(#linearGradient-61)" points="21.4537748 15.4864336 0 27.8432047 0 22.6630736 21.4537748 10.2523428"></polygon>
                                    </g>
                                    <polygon fill="url(#linearGradient-62)" points="21.4537748 5.557849 17.346755 2.75194465 21.4537748 0.323758194"></polygon>
                                    <polygon fill="url(#linearGradient-63)" points="21.4537748 15.4864336 17.346755 12.6805293 21.4537748 10.2523428"></polygon>
                                </g>
                                <g opacity="0.2" transform="translate(118.887417, 283.288420)" id="路径">
                                    <g>
                                        <path d="M0.21615894,10.6840204 C0.21615894,10.6840204 5.78225166,8.52563245 8.59231788,5.12617141 C9.78119205,3.66925954 9.2407947,-0.053959699 6.37668874,0.215838796 C5.2418543,0.323758194 3.24238411,0.59355669 0.21615894,1.94254917 L0.21615894,10.6840204 Z" fill="url(#linearGradient-64)"></path>
                                        <path d="M0.21615894,3.99301773 L0.21615894,1.94254917 C0.21615894,1.94254917 5.2418543,6.31328479 0.21615894,10.6840204 L0.21615894,3.99301773 Z" fill="url(#linearGradient-65)"></path>
                                    </g>
                                    <g transform="translate(0.000000, 10.791940)">
                                        <path d="M0.21615894,10.5221413 C0.21615894,10.5221413 5.78225166,8.36375335 8.59231788,4.96429231 C9.78119205,3.50738044 9.2407947,-0.215838796 6.37668874,0.053959699 C5.2418543,0.161879097 3.24238411,0.431677592 0.21615894,1.78067007 L0.21615894,10.5221413 Z" fill="url(#linearGradient-66)"></path>
                                        <path d="M0.21615894,3.83113863 L0.21615894,1.78067007 C0.21615894,1.78067007 5.2418543,6.15140569 0.21615894,10.5221413 L0.21615894,3.83113863 Z" fill="url(#linearGradient-67)"></path>
                                    </g>
                                </g>
                                <g opacity="0.2" transform="translate(92.407947, 283.288420)" id="路径">
                                    <g>
                                        <path d="M9.02463576,10.7919398 C9.02463576,10.7919398 3.45854305,8.63355185 0.648476821,5.23409081 C-0.540397351,3.77717893 -2.08166817e-17,0.053959699 2.86410596,0.323758194 C3.9989404,0.431677592 5.9984106,0.701476088 9.02463576,2.05046856 L9.02463576,10.7919398 Z" fill="url(#linearGradient-68)"></path>
                                        <path d="M9.02463576,4.10093713 L9.02463576,2.05046856 C9.02463576,2.05046856 3.9989404,6.42120419 9.02463576,10.7919398 L9.02463576,4.10093713 Z" fill="url(#linearGradient-69)"></path>
                                    </g>
                                    <g transform="translate(0.000000, 10.791940)">
                                        <path d="M9.02463576,10.6300607 C9.02463576,10.6300607 3.45854305,8.47167275 0.648476821,5.07221171 C-0.540397351,3.61529984 -2.08166817e-17,-0.107919398 2.86410596,0.161879097 C3.9989404,0.269798495 5.9984106,0.53959699 9.02463576,1.88858947 L9.02463576,10.6300607 Z" fill="url(#linearGradient-70)"></path>
                                        <path d="M9.02463576,3.93905803 L9.02463576,1.88858947 C9.02463576,1.88858947 3.9989404,6.25932509 9.02463576,10.6300607 L9.02463576,3.93905803 Z" fill="url(#linearGradient-71)"></path>
                                    </g>
                                </g>
                                <g opacity="0.2" transform="translate(99.973510, 287.065599)" id="路径">
                                    <g transform="translate(0.000000, 10.791940)">
                                        <path d="M1.40503311,0.107919398 L4.80953642,2.10442826 C8.21403974,4.10093713 12.4291391,4.10093713 15.7796026,2.10442826 L19.1300662,0.107919398 L20.2108609,0.59355669 L16.32,4.26281622 L8.21403974,5.5038893 L4.26913907,3.93905803 L0.270198675,0.647516389 L1.40503311,0.107919398 Z" fill="url(#linearGradient-72)"></path>
                                        <path d="M20.2108609,0.53959699 L15.7796026,3.18362224 C12.3750993,5.18013111 8.21403974,5.18013111 4.80953642,3.18362224 L0.324238411,0.53959699 L0.324238411,3.93905803 L4.80953642,6.58308328 C8.21403974,8.57959215 12.4291391,8.57959215 15.7796026,6.58308328 L20.2108609,3.93905803 L20.2108609,0.53959699 Z" fill="url(#linearGradient-73)"></path>
                                    </g>
                                    <g>
                                        <path d="M1.40503311,0.215838796 L4.80953642,2.21234766 C8.21403974,4.20885653 12.4291391,4.20885653 15.7796026,2.21234766 L19.1300662,0.215838796 L20.2108609,0.701476088 L16.32,4.37073562 L8.21403974,5.6118087 L4.26913907,4.04697743 L0.270198675,0.755435787 L1.40503311,0.215838796 Z" fill="url(#linearGradient-74)"></path>
                                        <path d="M20.2108609,0.647516389 L15.7796026,3.29154164 C12.3750993,5.28805051 8.21403974,5.28805051 4.80953642,3.29154164 L0.324238411,0.647516389 L0.324238411,4.04697743 L4.80953642,6.69100268 C8.21403974,8.68751155 12.4291391,8.68751155 15.7796026,6.69100268 L20.2108609,4.04697743 L20.2108609,0.647516389 Z" fill="url(#linearGradient-75)"></path>
                                    </g>
                                </g>
                                <g opacity="0.4" transform="translate(70.251656, 131.122069)" fill="url(#linearGradient-76)" id="路径">
                                    <polygon points="0.162119205 20.9363632 36.9631788 0.215838796 76.087947 22.9868318 39.2868874 43.7073562"></polygon>
                                </g>
                                <g transform="translate(70.251656, 48.563729)" id="路径">
                                    <polygon fill="url(#linearGradient-77)" points="39.1247682 89.0335034 0 66.2625104 0.324238411 20.8284438 39.4490066 43.5994368"></polygon>
                                    <polygon fill="url(#linearGradient-78)" points="0.324238411 20.8284438 37.125298 0.107919398 76.2500662 22.8789124 39.4490066 43.5994368"></polygon>
                                    <polygon fill="url(#linearGradient-79)" points="39.4490066 43.5994368 76.2500662 22.8789124 75.9258278 68.312979 39.1247682 89.0335034"></polygon>
                                </g>
                                <path d="M178.547285,152.759908 L114.618278,190.531697 C114.618278,190.531697 110.457219,193.6074 105.269404,190.531697 L38.4762914,151.410916 C38.4762914,151.410916 37.2333775,150.871319 37.0712583,149.090648 L37.0712583,0.485637291 L179.57404,2.05046856 L179.57404,150.65548 C179.57404,150.709439 180.006358,151.896553 178.547285,152.759908 Z" id="路径" fill="url(#linearGradient-80)" opacity="0.7"></path>
                            </g>
                            <g opacity="0.7" transform="translate(68.090066, 77.540788)" fill="#F3FFFF" id="椭圆形">
                                <ellipse cx="89.5438411" cy="52.6639655" rx="1.78331126" ry="1.78067007"></ellipse>
                                <ellipse cx="1.83735099" cy="38.0408871" rx="1.78331126" ry="1.78067007"></ellipse>
                                <ellipse cx="57.7684768" cy="11.2768763" rx="1.78331126" ry="1.78067007"></ellipse>
                                <ellipse cx="34.6935099" cy="84.8779058" rx="1.78331126" ry="1.78067007"></ellipse>
                                <ellipse cx="16.4821192" cy="2.64332448" rx="1.78331126" ry="1.78067007"></ellipse>
                                <ellipse cx="33.3965563" cy="49.7501417" rx="1.78331126" ry="1.78067007"></ellipse>
                            </g>
                        </g>
                        <g id="分组-6" transform="translate(247.682119, 314.928425)">
                            <polygon id="路径-copy" fill="#01CDFF" points="32.4199787 8.69555566 16.158019 17.9674756 0 8.69555566 15.7851553 0"></polygon>
                            <polygon id="路径-2-copy" fill="url(#linearGradient-81)" points="32.4007729 8.99795501 32.4007729 34.6883278 16.2119205 43.5702858 16.2119205 18.2604168"></polygon>
                            <polygon id="路径-3-copy" fill="url(#linearGradient-81)" points="0 34.1876538 16.1994563 43.5702858 16.1994563 18.2604168 0 8.99795501"></polygon>
                        </g>
                        <polygon id="路径-22-copy-2" fill-opacity="0.8" fill="url(#linearGradient-82)" points="70.2516556 260.0409 70.2516556 279.889334 260.894042 393.404311 260.894042 371.074091"></polygon>
                        <g id="分组-4" transform="translate(0.000000, 26.094070)">
                            <g id="分组" opacity="0.4" transform="translate(0.540397, 0.887298)" fill="url(#linearGradient-83)">
                                <path d="M151.59947,0.773401651 C154.769801,-1.02306506 157.291656,0.414108309 157.291656,4.00704173 L157.651921,121.711541 C157.651921,125.304474 155.130066,129.687853 151.959735,131.556178 L6.05245033,217.689727 C2.88211921,219.486194 0.360264901,218.049021 0.360264901,214.456087 L0,96.7515884 C0,93.158655 2.5218543,88.7752762 5.69218543,86.9069508 L151.59947,0.773401651 Z" id="路径"></path>
                            </g>
                            <g id="分组" opacity="0.6" transform="translate(2.701987, 1.774597)" fill="url(#linearGradient-84)">
                                <path d="M153.76106,1.22159736 C156.931391,-0.574869348 159.453245,0.862304022 159.453245,4.45523745 L159.81351,122.159736 C159.81351,125.75267 157.291656,130.136049 154.121325,132.004374 L6.41271523,218.137923 C3.24238411,219.93439 0.720529801,218.497217 0.720529801,214.904283 L0.360264901,97.1997841 C0.360264901,93.6068507 2.88211921,89.2234719 6.05245033,87.3551466 L153.76106,1.22159736 Z" id="路径"></path>
                            </g>
                            <path d="M62.7221192,80.4191565 C64.0911258,79.6287112 65.2439735,80.2754392 65.2439735,81.8563299 L65.3160265,114.695741 C65.3160265,116.276632 64.1631788,118.288675 62.7941722,119.07912 L34.1170861,135.606614 C32.7480795,136.397059 31.5952318,135.750331 31.5952318,134.169441 L31.5231788,101.330029 C31.5231788,99.7491383 32.6760265,97.7370956 34.0450331,96.9466503 L62.7221192,80.4191565 Z" id="路径" fill="url(#linearGradient-85)"></path>
                            <path d="M150.086358,38.128768 C151.455364,37.3383226 152.608212,37.9850506 152.608212,39.5659413 L152.680265,117.395128 C152.680265,118.976019 151.527417,120.988061 150.158411,121.778507 L121.481325,138.306 C120.112318,139.096446 118.95947,138.449718 118.95947,136.868827 L118.887417,59.0396405 C118.887417,57.4587498 120.040265,55.4467071 121.409272,54.6562617 L150.086358,38.128768 Z" id="路径-copy-2" fill="url(#linearGradient-86)" opacity="0.207310268"></path>
                            <path d="M96.6950993,89.3314013 C97.775894,88.756532 98.5684768,89.187684 98.6405298,90.4092813 C98.6405298,91.6308787 97.775894,93.0680521 96.7671523,93.7147801 L79.4023841,103.703135 C78.3215894,104.278004 77.5290066,103.846852 77.4569536,102.625255 C77.4569536,101.403658 78.3215894,99.9664842 79.3303311,99.3197562 L96.6950993,89.3314013 Z" id="路径" fill="url(#linearGradient-87)"></path>
                            <path d="M109.232318,71.3354913 C110.313113,70.7606219 111.177748,71.1917739 111.177748,72.4133713 C111.177748,73.6349687 110.313113,75.072142 109.304371,75.7188701 L79.4023841,92.9649505 C78.3215894,93.5398198 77.5290066,93.1086678 77.4569536,91.8870705 C77.4569536,90.6654731 78.3215894,89.2282997 79.3303311,88.5815717 L109.232318,71.3354913 Z" id="路径" fill="url(#linearGradient-87)"></path>
                            <path d="M109.232318,60.5379453 C110.313113,59.9630759 111.177748,60.3942279 111.177748,61.6158253 C111.177748,62.8374227 110.313113,64.274596 109.304371,64.921324 L79.4023841,82.1674045 C78.3215894,82.7422738 77.5290066,82.3111218 77.4569536,81.0895245 C77.4569536,79.8679271 78.3215894,78.4307537 79.3303311,77.7840257 L109.232318,60.5379453 Z" id="路径" fill="url(#linearGradient-87)"></path>
                            <path d="M62.7221192,134.406887 C64.0911258,133.616441 65.2439735,134.263169 65.2439735,135.84406 L65.3160265,168.683471 C65.3160265,170.264362 64.1631788,172.276405 62.7941722,173.06685 L34.1170861,189.594344 C32.7480795,190.384789 31.5952318,189.738061 31.5952318,188.157171 L31.5231788,155.317759 C31.5231788,153.736868 32.6760265,151.724826 34.0450331,150.93438 L62.7221192,134.406887 Z" id="路径" fill="url(#linearGradient-85)"></path>
                            <path d="M109.232318,114.525675 C110.313113,113.950806 111.177748,114.381958 111.177748,115.603555 C111.177748,116.825153 110.313113,118.262326 109.304371,118.909054 L79.4023841,136.155135 C78.3215894,136.730004 77.5290066,136.298852 77.4569536,135.077255 C77.4569536,133.855657 78.3215894,132.418484 79.3303311,131.771756 L109.232318,114.525675 Z" id="路径" fill="url(#linearGradient-87)"></path>
                            <path d="M109.232318,125.323221 C110.313113,124.748352 111.177748,125.179504 111.177748,126.401101 C111.177748,127.622699 110.313113,129.059872 109.304371,129.7066 L79.4023841,146.952681 C78.3215894,147.52755 77.5290066,147.096398 77.4569536,145.874801 C77.4569536,144.653203 78.3215894,143.21603 79.3303311,142.569302 L109.232318,125.323221 Z" id="路径" fill="url(#linearGradient-87)"></path>
                            <path d="M96.6950993,143.319131 C97.775894,142.744262 98.5684768,143.175414 98.6405298,144.397011 C98.6405298,145.618609 97.775894,147.055782 96.7671523,147.70251 L79.4023841,157.690865 C78.3215894,158.265734 77.5290066,157.834582 77.4569536,156.612985 C77.4569536,155.391388 78.3215894,153.954214 79.3303311,153.307486 L96.6950993,143.319131 Z" id="路径" fill="url(#linearGradient-87)"></path>
                        </g>
                        <g id="分组-2" transform="translate(339.549669, 26.094070)">
                            <path d="M0,3.05338948 L-1.77635684e-15,25.7607161 C-4.63437893e-16,27.0598087 0.699908568,28.258137 1.83142767,28.8963423 L82.243927,74.2510213 C83.9756855,75.2277768 86.17137,74.6157259 87.1481256,72.8839673 C87.4525486,72.3442344 87.6124993,71.7350603 87.6124993,71.115395 L87.6124993,50.6078072 C87.6124993,49.2982894 86.9014126,48.0920535 85.7556457,47.4579754 L2.67157319,1.47847356 C1.80177114,0.997116977 0.70644065,1.31201425 0.225084072,2.1818163 C0.0774498469,2.44858849 4.40355277e-15,2.7484907 4.4408921e-15,3.05338948 Z" id="路径-35" fill="url(#linearGradient-88)" opacity="0.651901972"></path>
                            <path d="M39.2902307,22.4286371 L39.2902307,22.4286371 C39.28495,22.7856653 38.9912405,23.0708129 38.6342124,23.0655322 C38.633772,23.0655257 38.6333316,23.0655187 38.6328912,23.0655113 L9.69341539,22.578311 C9.51455566,22.5752999 9.37200221,22.4278644 9.37501334,22.2490047 C9.37797797,22.0729073 9.52110946,21.9314516 9.69722955,21.9305609 L38.6519701,21.784134 C39.0027318,21.7823602 39.2885182,22.0652707 39.2902921,22.4160324 C39.2903133,22.420234 39.2902929,22.4244358 39.2902307,22.4286371 Z" id="矩形" fill="url(#linearGradient-89)" transform="translate(24.332633, 22.424865) rotate(29.000000) translate(-24.332633, -22.424865) "></path>
                            <path d="M19.121162,20.0645205 L19.121162,20.0645205 C19.1186188,20.2364668 18.9771671,20.3737951 18.8052208,20.3712518 C18.8050087,20.3712487 18.8047966,20.3712453 18.8045845,20.3712418 L4.86721035,20.1366041 C4.78107075,20.1351539 4.71241641,20.0641483 4.71386658,19.9780087 C4.71529436,19.8931995 4.78422709,19.8250738 4.86904727,19.8246449 L18.813773,19.7541251 C18.9827013,19.7532708 19.1203373,19.8895217 19.1211916,20.05845 C19.1212018,20.0604735 19.121192,20.0624971 19.121162,20.0645205 Z" id="矩形-copy-6" fill="url(#linearGradient-89)" transform="translate(11.917520, 20.062704) rotate(29.000000) translate(-11.917520, -20.062704) "></path>
                            <path d="M7.20529801,25.3558688 C11.8772462,24.4176196 17.2540621,27.5651071 23.3357457,34.7983311 C32.458271,45.6481672 36.4165522,28.8583433 45.5418563,40.3581829 C54.6671604,51.8580225 60.0487227,57.1799266 68.9414256,54.5189746" id="路径-21" stroke="url(#linearGradient-90)" stroke-width="0.9"></path>
                        </g>
                        <polygon id="路径-4" fill="#06C0E8" points="75.6556291 270.838446 75.6556291 276.06982 79.2582781 278.03681 79.2582781 272.734802"></polygon>
                        <polygon id="路径-4-copy" fill="#06C0E8" points="81.9602649 274.437628 81.9602649 279.669002 85.5629139 281.635992 85.5629139 276.333984"></polygon>
                        <polygon id="路径-4-copy-2" fill="#06C0E8" points="88.2649007 278.03681 88.2649007 283.268184 91.8675497 285.235174 91.8675497 279.933166"></polygon>
                        <polygon id="路径-4-copy-3" fill="#06C0E8" points="95.4701987 281.635992 95.4701987 286.867366 99.0728477 288.834356 99.0728477 283.532348"></polygon>
                        <g id="分组-7" transform="translate(121.000000, 224.000000)">
                            <path d="M98.2649007,13.0388548 L14.2401766,63.2474438 C13.0286976,61.807771 11.6441501,60.3680982 10,59.0184049 L95.4958057,8 L98.2649007,13.0388548 Z" id="路径" fill="url(#linearGradient-91)" opacity="0.5"></path>
                            <path d="M88.2649007,5.03885481 L4.2401766,55.2474438 C3.02869757,53.807771 1.64415011,52.3680982 -7.10542736e-15,51.0184049 L85.4958057,-2.84217094e-14 L88.2649007,5.03885481 Z" id="路径-copy" fill="url(#linearGradient-91)" opacity="0.5"></path>
                            <g id="分组" transform="translate(37.000000, 31.000000)">
                                <path d="M22.4264901,0.3599182 C23.597351,0.989775051 24.4980132,2.60940695 24.4980132,3.9591002 C24.4980132,5.30879346 23.597351,5.84867076 22.4264901,5.12883436 C21.2556291,4.49897751 20.3549669,2.8793456 20.3549669,1.52965235 C20.3549669,0.26993865 21.2556291,-0.26993865 22.4264901,0.3599182 Z" id="路径" fill="url(#linearGradient-92)"></path>
                                <path d="M16.2119205,3.7791411 C17.3827815,4.40899796 18.2834437,6.02862986 18.2834437,7.37832311 C18.2834437,8.72801636 17.3827815,9.26789366 16.2119205,8.54805726 C15.0410596,7.91820041 14.1403974,6.29856851 14.1403974,4.94887526 C14.1403974,3.68916155 15.0410596,3.14928425 16.2119205,3.7791411 Z" id="路径" fill="url(#linearGradient-93)" opacity="0.5"></path>
                                <path d="M9.36688742,7.82822086 C10.5377483,8.45807771 11.4384106,10.0777096 11.4384106,11.4274029 C11.4384106,12.7770961 10.5377483,13.3169734 9.36688742,12.597137 C8.19602649,11.9672802 7.29536424,10.3476483 7.29536424,8.99795501 C7.29536424,7.73824131 8.19602649,7.19836401 9.36688742,7.82822086 Z" id="路径" fill="url(#linearGradient-94)" opacity="0.2"></path>
                                <path d="M2.79205298,11.4274029 C3.96291391,12.0572597 4.86357616,13.6768916 4.86357616,15.0265849 C4.86357616,16.3762781 3.96291391,16.9161554 2.79205298,16.196319 C1.62119205,15.5664622 0.720529801,13.9468303 0.720529801,12.597137 C0.720529801,11.2474438 1.71125828,10.7075665 2.79205298,11.4274029 Z" id="路径" fill="url(#linearGradient-95)" opacity="0.1"></path>
                            </g>
                            <g id="分组-copy-2" transform="translate(27.000000, 23.000000)">
                                <path d="M22.4264901,0.3599182 C23.597351,0.989775051 24.4980132,2.60940695 24.4980132,3.9591002 C24.4980132,5.30879346 23.597351,5.84867076 22.4264901,5.12883436 C21.2556291,4.49897751 20.3549669,2.8793456 20.3549669,1.52965235 C20.3549669,0.26993865 21.2556291,-0.26993865 22.4264901,0.3599182 Z" id="路径" fill="url(#linearGradient-92)"></path>
                                <path d="M16.2119205,3.7791411 C17.3827815,4.40899796 18.2834437,6.02862986 18.2834437,7.37832311 C18.2834437,8.72801636 17.3827815,9.26789366 16.2119205,8.54805726 C15.0410596,7.91820041 14.1403974,6.29856851 14.1403974,4.94887526 C14.1403974,3.68916155 15.0410596,3.14928425 16.2119205,3.7791411 Z" id="路径" fill="url(#linearGradient-93)" opacity="0.5"></path>
                                <path d="M9.36688742,7.82822086 C10.5377483,8.45807771 11.4384106,10.0777096 11.4384106,11.4274029 C11.4384106,12.7770961 10.5377483,13.3169734 9.36688742,12.597137 C8.19602649,11.9672802 7.29536424,10.3476483 7.29536424,8.99795501 C7.29536424,7.73824131 8.19602649,7.19836401 9.36688742,7.82822086 Z" id="路径" fill="url(#linearGradient-94)" opacity="0.2"></path>
                                <path d="M2.79205298,11.4274029 C3.96291391,12.0572597 4.86357616,13.6768916 4.86357616,15.0265849 C4.86357616,16.3762781 3.96291391,16.9161554 2.79205298,16.196319 C1.62119205,15.5664622 0.720529801,13.9468303 0.720529801,12.597137 C0.720529801,11.2474438 1.71125828,10.7075665 2.79205298,11.4274029 Z" id="路径" fill="url(#linearGradient-95)" opacity="0.1"></path>
                            </g>
                        </g>
                    </g>
                </g>
            </g>
        </g>
    </g>
</svg>