<?xml version="1.0" standalone="no"?><!DOCTYPE svg PUBLIC "-//W3C//DTD SVG 1.1//EN" "http://www.w3.org/Graphics/SVG/1.1/DTD/svg11.dtd">
<svg t="1557846153423" class="icon" viewBox="0 0 4832 1024" version="1.1"
  xmlns="http://www.w3.org/2000/svg" p-id="7417"
  xmlns:xlink="http://www.w3.org/1999/xlink" width="302" height="64" fill="#FFFFFF">
  <defs>
    <style type="text/css"></style>
  </defs>
  <path d="M302.688 606.528H651.52c54.016 0 97.888 43.872 97.888 97.888s-43.872 97.888-97.888 97.888H103.52v166.528H749.44a222.624 222.624 0 0 0 222.816-222.816v-83.264a222.624 222.624 0 0 0-222.816-222.816H400.608c-54.016 0-97.888-43.872-97.888-97.888s43.872-97.888 97.888-97.888h548V76.48H302.688a222.624 222.624 0 0 0-222.816 222.816v83.264c-1.12 123.776 99.04 223.936 222.816 223.936zM4544.992 76.512v892.352h222.816V75.392h-222.816v1.12zM1698.048 801.184h-222.816a110.912 110.912 0 0 1-111.392-111.392v-614.4h-223.936v669.536a222.624 222.624 0 0 0 222.816 222.816h447.872a222.624 222.624 0 0 0 222.816-222.816V75.392h-223.936v614.4a110.912 110.912 0 0 1-111.392 111.392zM2535.232 243.072h222.816a110.912 110.912 0 0 1 111.392 111.392v614.4h222.816V299.328a222.624 222.624 0 0 0-222.816-222.816H2421.568a222.624 222.624 0 0 0-222.816 222.816v669.536h222.816v-614.4c2.24-60.768 51.776-111.392 113.664-111.392z m1061.152 0h446.72a110.912 110.912 0 0 1 111.392 111.392v614.4h222.816V299.328a222.624 222.624 0 0 0-222.816-222.816h-669.536a222.624 222.624 0 0 0-222.816 222.816v669.536h222.816v-614.4c-1.12-60.768 49.504-111.392 111.392-111.392z m111.392 167.648h222.816v558.144h-222.816V410.72z" fill="" p-id="7418"></path>
</svg>
