<?xml version="1.0" standalone="no"?><!DOCTYPE svg PUBLIC "-//W3C//DTD SVG 1.1//EN" "http://www.w3.org/Graphics/SVG/1.1/DTD/svg11.dtd">
<svg t="1558063240894" class="icon" style="" viewBox="0 0 1024 1024" version="1.1"
  xmlns="http://www.w3.org/2000/svg" p-id="4095"
  xmlns:xlink="http://www.w3.org/1999/xlink" width="64" height="64">
  <defs>
    <style type="text/css"></style>
  </defs>
  <path d="M511.999488 68.209498c-200.252837 0-362.589109 162.336272-362.589108 362.589109 0 200.25079 162.336272 362.589109 362.589108 362.589108 200.249767 0 362.588085-162.338319 362.588086-362.589108 0-200.251813-162.338319-362.589109-362.588086-362.589109z m0 623.87602c-144.305617 0-261.286911-116.982318-261.286911-261.286911 0-144.305617 116.981295-261.286911 261.286911-261.286912 144.30357 0 261.285888 116.981295 261.285889 261.286912 0 144.304593-116.983341 261.286911-261.285889 261.286911z" fill="#d81e06" p-id="4096"></path>
  <path d="M705.243701 606.658893c-47.789423 52.484352-116.669186 85.426625-193.244213 85.426625s-145.455813-32.942273-193.246259-85.427648l-71.688739 71.689762 264.931928 264.932952 264.934998-264.932952-71.687715-71.688739z" fill="#d81e06" p-id="4097"></path>
  <path d="M511.999488 430.990988m-101.302197 0a101.302197 101.302197 0 1 0 202.604394 0 101.302197 101.302197 0 1 0-202.604394 0Z" fill="#d81e06" p-id="4098"></path>
</svg>
